<svg width="470" height="470" xmlns="http://www.w3.org/2000/svg" xmlns:xlink="http://www.w3.org/1999/xlink" xmlns:sketch="http://www.bohemiancoding.com/sketch/ns"><title>logo</title><defs><path id="a" d="M265.808 0v250h84.192v-250h150v500h-264.14v-250h-85.86v250h-150v-500h265.808zm0 0"/><mask id="b" sketch:name="Shape"><use xlink:href="#a"/></mask></defs><g sketch:type="MSLayerGroup" transform="matrix(.574 .819 .819 -.574 -113.25 173.75)" fill="none"><g sketch:type="MSShapeGroup"><use id="Shape" xlink:href="#a"/><path d="M485 250c0-129.787-105.213-235-235-235s-235 105.213-235 235 105.213 235 235 235 235-105.213 235-235zm-440 0c0-113.218 91.782-205 205-205s205 91.782 205 205-91.782 205-205 205-205-91.782-205-205zm0 0" fill="#5E5E5E" mask="url(#b)"/></g><g transform="translate(175 6)" fill="#5E5E5E" sketch:type="MSShapeGroup"><path d="M121 465h30v-465h-30v465zm0 0" id="Shape"/><path d="M1 494h30v-468h-30v468zm0 0" id="Shape"/><path d="M61 464h30v-434h-30v434zm0 0"/></g></g></svg>