<?xml version="1.0" encoding="UTF-8" standalone="no"?>
<svg width="28px" height="19px" viewBox="0 0 28 19" version="1.1" xmlns="http://www.w3.org/2000/svg" xmlns:xlink="http://www.w3.org/1999/xlink" xmlns:sketch="http://www.bohemiancoding.com/sketch/ns">
    <title>anarch</title>
    <description>Created with Sketch (http://www.bohemiancoding.com/sketch)</description>
    <defs></defs>
    <g id="Page-1" stroke="none" stroke-width="1" fill="none" fill-rule="evenodd" sketch:type="MSPage">
        <g id="Anarch-Logo" sketch:type="MSLayerGroup" transform="translate(1.000000, 1.000000)" fill="#DB6344">
            <g id="Bits" transform="translate(0.000000, 3.000000)" sketch:type="MSShapeGroup">
                <path d="M22,1.65613035 L24.9512981,0 L25,0.218977236 L22.8275344,2 L22,1.65613035 Z" id="Path-3"></path>
                <path d="M3,3 L5.26979665,2.84813205 L7,2.2561344 L6.92506105,2 L5.33472185,2.39495984 L3.15898878,2.6108614 L3,3 Z" id="Path-4"></path>
                <path id="Path-5" d="M4,2.20295986 L7,2.23714611 L6.82832644,2 L4,2.20295986 Z"></path>
                <path d="M0.78024911,0 L0.16207871,0.380854239 L0,1 L0.730008373,0.755383413 L1,0.429251652 L0.78024911,0 Z" id="Path-9"></path>
            </g>
            <path d="M15.7921947,10.0358999 L15.4060367,10.7464974 L14.8021639,11.1771053 L14,11.8335621 L14.3073152,12 L15.2946539,11.833562 L16.689165,11.6797439 L18.3593032,10.9464186 L19,10.7464975 L19,10.4374652 L16.1864268,8 L15.8341677,8.17442824 L15.8341677,8.98008594 L15.6423999,8.77536394 L14.9605818,8 L13.9075971,8.77536397 L12.8469911,8.94641541 L11.74561,9.09583487 L11.099308,9.63718669 L11,10.8060726 L11.058533,10.9992398 L11.7990367,10.9992398 L12.846991,10.9992398 L13.3742456,10.9992398 L13.8055455,11 L14.6521402,10.7782897 L15.7921947,10.0358999 L15.7921947,10.0358999 Z M1.56053346,2.57451723 L3.38951551,2.07964624 L6.06082911,1.94530934 C5.88033706,1.54270071 5.70157631,1.14395408 5.5228156,0.745207452 C5.43294726,0.544745606 5.25321054,0.143821923 5.25321054,0.143821923 L5.69117617,0 L6.70226784,1.87014012 L8.10991084,2.11867226 L9.30205837,2.57451731 L11.3033304,3.78057248 L12.5023746,3.96922773 L16.0567375,6.54890207 L16.4457823,6.82227728 L17.0129054,6.73187891 L17.5630957,6.120283 L20.7503391,5.21077301 L21.5359944,5.49038434 L21.3238958,5.7484481 L18.3999099,6.73816573 L17.2834714,7.31092532 L17.3758045,7.76342416 L20.5121978,10.3165316 L21.2342389,10.4210753 L21.2342397,10.9517443 L22,11.2728235 L21.0287194,11.5149213 L19.6607668,11.5736418 L17.6551301,12.2962517 L16.1339208,12.8032224 L13.0440305,12.8032224 L12.2414171,12.7322694 L11.7005585,12.4535936 L10.6007441,12.1191755 L10.239492,12.1581132 L10.0475177,12.453594 L9.77901002,12.9625218 L8.37347349,16.7694517 C8.37347349,16.7694517 8.04650649,17.0201029 8.03592867,16.9987038 C8.02597208,16.9785615 7.87224106,16.6535946 7.87224106,16.6535946 L8.10991085,16.3382147 L8.30713526,15.5113704 L8.59636545,14.8677113 L8.72705341,14.0512123 L8.82093783,13.6534127 L9.30205835,12.7322694 L9.41729466,11.7068311 L8.77044833,11.6331849 L8.43052543,11.2728235 L6.92507145,10.8869794 L6.67710011,10.4060174 L2.27902634,6.85553658 L2.31114222,6.34037235 L6.87921397,9.62072276 L7.35513627,9.44900135 L7.11720085,8.83608724 L6.92970383,8.51581439 L6.93366685,7.99948406 L7.15327974,7.67748741 L7.37479695,8.79775792 L9.03833761,10.6545495 L10.0475173,10.6280333 L10.0475177,10.0189353 L10.2895186,9.65246105 L10.6655935,9.42167397 L8.16709151,5.08219743 L7.6951837,5.36632107 L7.50248844,4.76699459 L6.69567997,4.81612304 L6.58497283,4.32412878 L6.90036721,4.24280574 L7.20711501,4.51161794 L7.62462141,4.47095642 L6.92507173,2.99548065 L6.21105962,2.80287078 L3.61813957,2.99213438 L2.5986546,3.15035932 L1.78622858,3.44100472 L1,3.25734803 L1.56053346,2.57451723 Z M11.080865,7.85017749 L10.7157589,7.35321719 L9,5.34297605 L9.21392134,5 L11.0428117,5.38190053 L12.2980226,6.03302868 L13.1818194,6.02072708 L14,6.71145294 L13.9694202,7.06195683 L13.5615298,7.31080419 L12.1209204,7.80978416 L11.6235533,8 L11.080865,7.85017749 Z M8,4.39792975 L8.55239404,4.90861364 L9.99999998,5 L10,4.69449166 L9.22236834,4.1194085 L8.19469186,4 L8,4.39792975 Z" id="Path-1" stroke="#DB6344" stroke-width="0.2" sketch:type="MSShapeGroup"></path>
        </g>
    </g>
</svg>