<?xml version="1.0" encoding="UTF-8" standalone="no"?>
<svg width="27px" height="30px" viewBox="0 0 27 30" version="1.1" xmlns="http://www.w3.org/2000/svg" xmlns:xlink="http://www.w3.org/1999/xlink" xmlns:sketch="http://www.bohemiancoding.com/sketch/ns">
    <title>Slice 1</title>
    <description>Created with Sketch (http://www.bohemiancoding.com/sketch)</description>
    <defs></defs>
    <g id="Page-1" stroke="none" stroke-width="1" fill="none" fill-rule="evenodd" sketch:type="MSPage">
        <path d="M13,1 L7.58553326,1.28430615 L2.5063358,6.0965251 L1,12 L2.62354805,12 L3.81731785,9.63960936 L9.17687434,11.8560981 L12.7127772,11.862094 L13,1 L13,1 Z M4.34193814,12 L4,14.3099737 C4,14.3099737 6.01858175,15.9903125 7,15.9999544 C8.01858175,16.0099614 10,14.3689204 10,14.3689204 L4.34193814,12 L4.34193814,12 Z" id="Path-1" fill="#529DBA" sketch:type="MSShapeGroup"></path>
        <path d="M0.0528102372,15.1574852 L3.38378166,19.3199862 L0.527128288,19.2344519 L1.98129431,21.6155848 L4.64402477,22.641997 L5.28258887,25.3888277 L10.5108325,29.0985601 L13.3495774,30 C13.3495774,30 18.1275514,29.0191718 20.0202187,27.2039998 C21.9128858,25.3888277 22.0682337,25.1337712 22.0682337,25.1337712 L22.0440283,23.4673376 L25.0928661,17.6717881 L25.7437101,17.5753897 L27,15.7270782 L26.791813,14.8323515 L24.1933198,14.7118275 L24.1389875,12.5965746 L25.672029,12.5340769 L25.5207714,11.8241398 L24.9258179,11.4648556 L26.0825853,10.1806878 L25.521083,9.4863491 L25.6161385,7.75232219 L26.1787835,6.7914581 L25.5025914,6.51328586 L23.7579348,6.35480568 L21.4492826,5.80875619 L21.1596493,5.07760517 L21.7421364,4.38451435 L20.7137718,3.61478318 L19.9589382,4.07608114 L19.0597035,3.47242139 L18.9577916,2.47089736 L18.025729,1.92619973 L16.8100584,2.09424696 L17.0949131,0.685083617 L15.3278171,0 L14.6748954,0.505285564 L14.6285624,1.80110022 L14.097187,1.96800356 L14.168972,14.6935253 L11.4823837,14.7757811 L9.57847026,17.0355796 L7.33682441,17.8839269 L4.71900839,17.0284043 L2.56462653,14.7991788 L2.32680558e-16,14.7540473 L0.0528102372,15.1574852 L0.0528102372,15.1574852 Z M16,14.6724592 L17.5294083,16.5226232 L20.0033588,17 L22.9732489,15.1694819 L23,12 L21.7921269,12.0012152 L18.1233654,13.2427593 L17.2338926,13.2427593 L16.0321849,14.1487017 L16,14.6724592 L16,14.6724592 Z M11.1455588,19 L15.9665652,18.9145269 L16,18.2627454 L13.6590437,15 L12.6821868,15.0065048 L11,17.8408437 L11.1455588,19 L11.1455588,19 Z M23,20.0945816 L20.3233665,20 L20.0036541,20.842301 L20.2715578,22.5098867 L16.9089468,24.5640234 L14,25.0237439 L14.0133651,29 L18.1600147,27.4084199 L21.4236635,24.9478801 L21.5307348,23.4161402 L23,20.0945816 L23,20.0945816 Z M6.39459943,25.2066222 L9.09988065,27.11596 L11.537073,28.4230824 L14,29 L13.9700134,25.0225703 L12.589624,24.1538709 L11.898814,23.9627442 L9.46072654,22.4883992 L8.99694167,22.0706646 L8.99694167,20.5257861 L8.05415486,20.0395545 L5,20 C5,20 5.74035398,21.7310998 5.97312474,22.6001303 C6.20522046,23.4666405 6.39459943,25.2066222 6.39459943,25.2066222 Z" id="Path-3" fill="#529DBA" sketch:type="MSShapeGroup"></path>
        <path d="M5.09450337,22.0206042 C7.0623266,21.8164607 8.12728052,23.1965349 8.12728052,23.1965349 L8.26656271,26.5765785 L10.432524,28 L10.3225157,22.9122235 L12.9588625,24.438805 L13,26.8995749 L7.88230411,24.6328515 L5.46628204,23.2925483 L5,22.9765141" id="Path-8" stroke="#529DBA" stroke-width="0.5" sketch:type="MSShapeGroup"></path>
        <path d="M7,19 L7.27044855,21.9590257 L8.218503,23.1467266 C8.218503,23.1467266 8.39793846,22.2560462 8.55524516,21.9590256 C8.70007583,21.6855618 9.12491512,21.4352734 9.12491512,21.4352734" id="Path-9" stroke="#529DBA" stroke-width="0.5" sketch:type="MSShapeGroup"></path>
        <path d="M24,2.33047473 L24.3136523,5 L27,3.75405819 L25.8672067,3.218683 L25.6139827,2 L24,2.33047473 L24,2.33047473 Z" id="Path-11" fill="#529DBA" sketch:type="MSShapeGroup"></path>
        <path d="M12.8127174,26.839724 C12.8127174,26.839724 12.8857809,28.3990667 12.8857809,29.1069232 C12.8857809,29.2023044 13.1040564,29.1981966 13.1040564,29.2935778 C13.1040564,29.313003 13.0703822,29.3449929 13.0703822,29.3644181 C13.0703822,29.3896592 12.7582414,29.3644182 12.7582414,29.3644182 L14.177095,29.6268327 L14.0640334,24.1189169 L13.1040564,24.0526153 L12.8127174,26.839724 L12.8127174,26.839724 Z" id="Path-11" fill="#529DBA" sketch:type="MSShapeGroup"></path>
    </g>
</svg>