<?xml version="1.0" standalone="no"?>
<!DOCTYPE svg PUBLIC "-//W3C//DTD SVG 1.1//EN" "http://www.w3.org/Graphics/SVG/1.1/DTD/svg11.dtd" >
<svg xmlns="http://www.w3.org/2000/svg">
<metadata></metadata>
<defs>
<font id="cyberpunk_is_not_deadregular" horiz-adv-x="833" >
<font-face units-per-em="1000" ascent="750" descent="-250" />
<missing-glyph horiz-adv-x="300" />
<glyph unicode="&#xd;" horiz-adv-x="333" />
<glyph unicode=" "  horiz-adv-x="300" />
<glyph unicode="&#x09;" horiz-adv-x="300" />
<glyph unicode="&#xa0;" horiz-adv-x="300" />
<glyph unicode="!" horiz-adv-x="209" d="M1 125h123v-124h-123v124zM1 702h123v-527h-123v527z" />
<glyph unicode="&#x22;" horiz-adv-x="299" d="M1 749h76v-149h-76v149zM127 749h76v-149h-76v149z" />
<glyph unicode="#" horiz-adv-x="991" d="M104 594h199l65 159h99l-50 -159h239l50 159h110l-60 -159h149v-80h-174l-105 -274h180v-75h-204l-60 -164h-100l60 164h-239l-60 -164h-114l64 164h-154v75h179l100 274h-174v80zM626 514h-234l-104 -274h239z" />
<glyph unicode="$" d="M342 800h94v-51h308v-214h-186v67q-46 24 -122 30v-129q129 -76 218.5 -164t89.5 -176q0 -7 -1 -17.5t-11 -38.5t-27.5 -49.5t-56 -39t-90.5 -17.5h-122v-47h-94v47h-342v233h178v-71q68 -26 164 -32v288q-72 43 -157.5 89t-134.5 70l-50 24q0 6 1 16t10.5 35t26.5 44.5 t53.5 35.5t86.5 16h164v51zM593 200q0 53 -157 159v-226q63 6 110 22.5t47 44.5zM236 602q34 -11 106 -48v75q-49 -6 -106 -27z" />
<glyph unicode="%" horiz-adv-x="787" d="M451 747h94l-287 -750h-84zM305 621v-148q0 -3 -0.5 -8t-4.5 -18t-11 -23t-22 -18t-36 -8h-155q-3 0 -8 0.5t-18 4.5t-23 11t-18 22.5t-8 36.5v148q0 3 0.5 8t4.5 18.5t11 23.5t22.5 18t36.5 8h155q3 0 8 -0.5t18 -4.5t22.5 -11t17.5 -23t8 -37zM76 473h155v148h-155 v-148zM704 220v-148q0 -3 -0.5 -8t-4.5 -18t-11 -23t-22 -18t-36 -8h-155q-3 0 -8 0.5t-18 4.5t-23 11t-18 22.5t-8 36.5v148q0 3 0.5 8t4.5 18.5t11 23.5t22.5 18t36.5 8h155q3 0 8 -0.5t18 -4.5t22.5 -11t17.5 -23t8 -37zM475 72h155v148h-155v-148z" />
<glyph unicode="&#x26;" d="M377 1l-241 -1q-36 0 -63 8.5t-40.5 20.5t-21.5 24t-9 21l-2 8v209q0 2 1 5.5t5 12t9.5 15.5t16.5 13t25 7q-57 4 -57 54v201q0 7 1 14.5t7.5 24.5t19 29.5t38.5 23t62 10.5h241q5 0 13.5 -0.5t30.5 -5.5t39 -14t30.5 -28.5t13.5 -45.5v-209q0 -54 -61 -54l67 -62 l198 205v-163l-123 -128l188 -196h-199l-87 100zM129 100h171l101 100l-101 109h-171v-209zM128 390h241v209h-241v-209z" />
<glyph unicode="'" horiz-adv-x="173" d="M1 749h76v-149h-76v149z" />
<glyph unicode="(" horiz-adv-x="305" d="M218 51v-125q-61 0 -106 21t-65.5 51t-32.5 60t-13 51l-1 21v485q0 8 1 22.5t13 50.5t32.5 63.5t65.5 50t106 22.5v-125q-26 0 -45.5 -9t-28.5 -20t-14 -25.5t-5.5 -20t-0.5 -9.5v-485q0 -3 0.5 -8.5t5.5 -19t14 -24t28.5 -19t45.5 -8.5z" />
<glyph unicode=")" horiz-adv-x="300" d="M0 51q26 0 45.5 8.5t28.5 19t14 24t5.5 19t0.5 8.5v485q0 4 -0.5 9.5t-5.5 20t-14 25.5t-28.5 20t-45.5 9v125q44 0 80.5 -11.5t58.5 -30t38 -40.5t23.5 -44.5t11.5 -41t4 -30.5l1 -11v-485q0 -4 -0.5 -11.5t-4.5 -28.5t-11.5 -40.5t-23.5 -43t-38 -40.5t-58.5 -28.5 t-80.5 -11.5v125z" />
<glyph unicode="*" horiz-adv-x="201" d="M64 673h30l5 -59l41 35l18 -35l-49 -28l49 -22l-18 -39l-41 24l-5 -49h-31l-4 49l-34 -24l-25 39l49 22l-49 28l25 34l34 -34z" />
<glyph unicode="+" horiz-adv-x="586" d="M219 501h60v-219h219v-62h-219v-219h-60v219h-218v62h218v219z" />
<glyph unicode="," horiz-adv-x="162" d="M76 75v-75q0 -59 -100 -59v17q17 0 28 4.5t14.5 12.5t4 12t0.5 11q0 2 -23 2q-11 0 -17 7t-7 14v7v47q0 26 31 26q5 0 20 -0.5t24 -0.5q11 0 17.5 -6t7.5 -12v-7z" />
<glyph unicode="-" horiz-adv-x="334" d="M0 327h250v-53h-250v53z" />
<glyph unicode="." horiz-adv-x="158" d="M72 72v-50q0 -24 -32 -24q-6 0 -19.5 1t-20.5 1q-12 0 -19 5.5t-8 10.5l-1 6v50q0 18 7 23.5t23 5.5q5 0 19 -0.5t23 -0.5q12 0 19 -7t8 -14z" />
<glyph unicode="/" horiz-adv-x="457" d="M278 800h94l-287 -851h-84z" />
<glyph unicode="0" horiz-adv-x="588" d="M492 574v-455q0 -33 -12.5 -57.5t-30 -35.5t-34.5 -17.5t-29 -6.5l-13 -1h-245q-41 0 -69.5 14t-39.5 35.5t-14.5 36t-3.5 27.5v460q0 5 0.5 13.5t7 30.5t18 38.5t36 30t57.5 13.5h257q13 0 27.5 -3.5t36.5 -14t36.5 -38.5t14.5 -70zM128 119h245v455h-245v-455z" />
<glyph unicode="1" horiz-adv-x="387" d="M0 700h291v-701h-127v574h-164v127z" />
<glyph unicode="2" horiz-adv-x="598" d="M128 701h374v-410h-374v-202h374v-90h-501v193q0 54 12 94t27 59t36 30t31.5 12.5t20.5 1.5h247v209h-374q3 33 16.5 55.5t32.5 32t34 13t30 3.5z" />
<glyph unicode="3" horiz-adv-x="586" d="M490 283v-201q0 -37 -29 -57.5t-57 -22.5l-29 -3h-246q-36 0 -62.5 9.5t-38.5 22.5t-18.5 26.5t-7.5 22.5l-1 10h361v201h-278v98h278v210h-361q0 4 0.5 11t7 24.5t18 31t36 24.5t57.5 11h255q5 0 12.5 -1.5t27.5 -8t35 -16t27.5 -27.5t12.5 -41v-210q0 -22 -12 -35 t-23 -15.5t-22 -2.5q25 -1 39.5 -16.5t15.5 -29.5z" />
<glyph unicode="4" horiz-adv-x="605" d="M405 699l-3 -416h107v-90h-107v-193h-127v193h-275q0 355 9 424q9 66 38 78q13 5 43 5l1 3v-420h183v236q0 55 1 56t1 34l-1 90h130z" />
<glyph unicode="5" horiz-adv-x="594" d="M126 389h246q5 0 13.5 -1t30.5 -12t38.5 -29.5t30 -59t13.5 -95.5q-3 -54 -17.5 -93.5t-32.5 -57.5t-35 -28.5t-29 -11.5l-12 -1h-254q-29 0 -52 9.5t-35 22.5t-19.5 26t-9.5 22l-3 10h373v201h-373v233q0 4 0.5 10t2.5 24.5t6 35t13 37t21 35t32 24.5t44 10h254 q5 0 12.5 -0.5t27 -6t34.5 -15t27.5 -30.5t12.5 -50h-360v-209z" />
<glyph unicode="6" horiz-adv-x="596" d="M500 598h-372v-209h246q5 0 13.5 -1t30.5 -12t38.5 -29.5t30 -59t13.5 -95.5q0 -54 -13 -93.5t-31.5 -57.5t-37 -28.5t-31.5 -11.5l-13 -1h-246q-36 0 -62 8.5t-38 20.5t-18.5 24t-7.5 21l-1 8v442q0 4 0.5 10t2.5 24.5t6 35t13 37t21 35t32 24.5t44 10h254 q5 0 13.5 -0.5t30.5 -6t38.5 -15t30 -30.5t13.5 -50zM128 90h246v201h-246v-201z" />
<glyph unicode="7" horiz-adv-x="595" d="M127 700h372v-127q-10 -9 -27 -26t-61 -74t-77 -119.5t-60.5 -158.5t-27.5 -195h-119q0 98 20.5 193.5t50 161t59.5 117t51 76.5l20 25h-328q0 36 13 62t31.5 38t37.5 18.5t32 7.5z" />
<glyph unicode="8" horiz-adv-x="592" d="M496 283v-201q0 -36 -28.5 -56.5t-57.5 -23.5l-28 -2h-246q-36 0 -63 8.5t-40.5 20.5t-21.5 24t-9 21l-2 8v209q0 2 1 5.5t5 12t9.5 15.5t16.5 13t25 7q-11 1 -21.5 4t-23 16t-12.5 34v201q0 7 1 14.5t7.5 24.5t19 29.5t38.5 23t62 10.5h241q5 0 13.5 -0.5t30.5 -5.5 t39 -14t30.5 -28.5t13.5 -45.5v-209q0 -22 -12 -35.5t-23 -16t-22 -2.5q25 -1 39.5 -16.5t15.5 -29.5zM128 390h241v209h-241v-209zM128 90h241v201h-241v-201z" />
<glyph unicode="9" horiz-adv-x="594" d="M498 606v-441q0 -7 -1 -18t-7.5 -39t-18.5 -50t-38 -39.5t-61 -17.5h-245q-10 0 -24 2t-40.5 9t-44.5 27.5t-18 51.5h372v200h-245q-5 0 -13.5 1.5t-30.5 13t-39 32t-30.5 65t-13.5 105.5q0 54 13 93.5t31.5 57.5t37.5 28.5t32 11.5l13 1h245q35 0 61 -9.5t38 -23.5 t18.5 -28t7.5 -23zM127 389h245v209h-245v-209z" />
<glyph unicode=":" horiz-adv-x="158" d="M72 72v-50q0 -24 -28 -24h-4l-40 2q-12 0 -19 5.5t-8 10.5l-1 6v50q0 18 7 23.5t23 5.5q5 0 19 -0.5t23 -0.5q12 0 19 -7t8 -14zM72 401v-50q0 -24 -28 -24h-4l-40 2q-12 0 -19 5.5t-8 11.5l-1 5v50q0 18 7 23.5t23 5.5q5 0 19 -0.5t23 -0.5q12 0 19 -7t8 -14z" />
<glyph unicode=";" horiz-adv-x="158" d="M76 75v-75q0 -59 -94 -59h-6v17q22 0 33 8t12.5 14.5t1.5 17.5q0 2 -23 2q-11 0 -17 7t-7 14v7v47q0 26 31 26q5 0 20 -0.5t24 -0.5q11 0 17.5 -6t7.5 -12v-7zM72 401v-50q0 -24 -28 -24h-4l-40 2q-12 0 -19 5.5t-8 11.5l-1 5v50q0 18 7 23.5t23 5.5q5 0 19 -0.5t23 -0.5 q12 0 19 -7t8 -14z" />
<glyph unicode="&#x3c;" horiz-adv-x="394" d="M63 296l243 -253h-59l-246 253l246 246h59z" />
<glyph unicode="=" horiz-adv-x="586" d="M1 400h500v-53h-500v53zM-1 255h500v-53h-500v53z" />
<glyph unicode="&#x3e;" horiz-adv-x="393" d="M60 546l247 -247l-253 -255h-53l244 255l-244 247h59z" />
<glyph unicode="?" horiz-adv-x="433" d="M20 131h126v-130h-126v130zM346 512q0 -51 -20.5 -89.5t-50.5 -57t-59.5 -30t-49.5 -13.5l-21 -2v-136h-125v136q0 23 24.5 39t49.5 20l24 4q5 2 14.5 5t32.5 15t40.5 25.5t32 36t14.5 47.5q0 29 -13 51.5t-34 33.5t-33.5 15.5t-24.5 6.5l-3 1h-149v81h149q8 0 21.5 -1 t48.5 -11.5t61.5 -28.5t48.5 -56.5t22 -91.5z" />
<glyph unicode="@" d="M587 79h76v422q0 24 -15.5 39t-31.5 18l-16 4h-499q-3 0 -7 -0.5t-15 -3.5t-19 -8.5t-14.5 -17.5t-6.5 -28v-108t0.5 -155.5t0.5 -158v-127.5v-52q0 -2 0.5 -7t4 -15t9.5 -18t18 -14.5t28 -6.5h305q6 0 15 1.5t24 16.5t15 42h80q0 -39 -14 -68t-33.5 -42t-39 -20.5 t-33.5 -8.5l-14 -1h-305q-37 0 -65.5 14.5t-42 33t-22 41.5t-10 34.5t-1.5 17.5v600q0 38 14.5 66t35.5 41t42 21t35 9l15 2h502q10 0 23 -2t34 -10.5t38 -22.5t29.5 -42t12.5 -64l2 -502h-280v184h-242v-184h-132v374q0 35 13.5 61t33 37.5t39 18t32.5 7.5l14 1h242 q35 0 60.5 -13t37.5 -31t19 -36.5t7 -31.5l1 -13v-294zM220 271h242v102h-242v-102z" />
<glyph unicode="A" horiz-adv-x="830" d="M700 525v-524h-175v258h-339v-258h-185v524q0 49 19 85t46.5 52.5t54.5 26t46 10.5l19 1h339q49 0 85 -18t52.5 -44t26 -51.5t10.5 -43.5zM186 382h339v143h-339v-143z" />
<glyph unicode="B" horiz-adv-x="831" d="M701 174q0 -49 -18.5 -85t-41 -52.5t-51.5 -26t-41 -10.5t-19 -1h-531v702h531q7 0 19 -1t41 -10.5t51.5 -26t41 -52t18.5 -84.5q0 -54 -14.5 -92.5t-38.5 -56t-45.5 -25t-46.5 -8.5q21 0 37 -3t37.5 -13t35.5 -27.5t24.5 -50t10.5 -77.5zM152 406h306q4 0 10 0.5t22 5 t28.5 12.5t22.5 24.5t10 39.5q0 35 -23 55t-46 23l-24 2h-306v-162zM152 135h306q4 0 10 0.5t22 5t28.5 12t22.5 24t10 38.5q0 38 -27 58t-66 20h-306v-158z" />
<glyph unicode="C" horiz-adv-x="830" d="M529 210h171v-36q0 -4 -0.5 -10.5t-3.5 -24t-8.5 -34t-17.5 -36.5t-28 -34t-42.5 -24t-59.5 -10h-368q-4 0 -10 0.5t-24 4t-34.5 9t-36.5 18.5t-34 30.5t-24 46.5t-10 64v354q0 7 1 18.5t10.5 41t26 52.5t52 41.5t83.5 18.5h353q7 0 19 -1t42 -10.5t53 -25.5t42 -51.5 t19 -83.5v-32h-171v36h-344v-355h344v33z" />
<glyph unicode="D" horiz-adv-x="851" d="M701 527v-356q0 -48 -17.5 -83t-42.5 -51t-49.5 -25t-41.5 -10l-18 -1h-532v701h532q47 0 82 -18t51 -44t25 -51.5t10 -43.5zM522 276v156q0 4 -0.5 11t-6 24t-14.5 30t-29 24t-47 11h-241v-353h241q4 0 10.5 0.5t23 6t29.5 14.5t23.5 29t10.5 47z" />
<glyph unicode="E" horiz-adv-x="829" d="M529 557h-354v-135h344v-124h-344v-148h354v32h170q0 -50 -18 -87t-40 -54t-52 -27t-44 -11.5t-26 -1.5h-518v698h518q11 0 24 -1t43.5 -10.5t53 -26t41 -52t18.5 -84.5h-170v32z" />
<glyph unicode="F" horiz-adv-x="832" d="M702 525h-173v32h-353v-141h340v-124h-340v-293h-175v701h515q13 0 26.5 -1t45.5 -10.5t54.5 -26t41 -52.5t18.5 -85z" />
<glyph unicode="G" horiz-adv-x="830" d="M700 532v-36h-171v36h-344v-355h344v9q0 54 -24.5 82t-45.5 32h-17v63h258v-186q0 -7 -1 -19t-10.5 -42.5t-25.5 -53.5t-51 -42t-83 -19h-344q-8 0 -20.5 1t-44.5 10.5t-56.5 26t-44.5 52.5t-20 86v355q0 7 1 18.5t11.5 40.5t28 51.5t55.5 41t90 18.5h344q4 0 10 -0.5 t23.5 -4t34 -9.5t36 -19t34 -30t24 -45t9.5 -62z" />
<glyph unicode="H" horiz-adv-x="854" d="M704 527v-526h-173v259h-356v-259h-170v526q0 4 0.5 10t3.5 24t9 34.5t19 36.5t30 34t45 24t63 10v-319h356v319q48 0 84 -18t52 -43t25.5 -50.5t10.5 -43.5z" />
<glyph unicode="I" horiz-adv-x="322" d="M172 701v-699h-173v529q0 7 1 18.5t10.5 40.5t25.5 51.5t52 41t84 18.5z" />
<glyph unicode="J" horiz-adv-x="372" d="M80 701h162v-552q0 -58 -18.5 -104.5t-47.5 -75.5t-64.5 -50t-71 -31t-64.5 -15.5t-48 -6.5h-18v133q35 0 63 15.5t45 40.5t30 55t19 60.5t9 55.5t4 40v16v419z" />
<glyph unicode="K" horiz-adv-x="696" d="M566 187v-186h-169v186q0 82 -131 82q-22 0 -45 -2.5t-35 -4.5l-12 -2v-259h-174v700h174v-223q33 -4 74 -4q149 0 149 58v169h169v-169q0 -7 -1 -18.5t-9 -41.5t-22 -53.5t-44.5 -42.5t-72.5 -20q42 -4 72.5 -22.5t44.5 -42.5t22 -48t9 -40z" />
<glyph unicode="L" horiz-adv-x="622" d="M172 121h320v-13q0 -31 -15.5 -53t-37 -32.5t-43.5 -16.5t-38 -6l-15 -1h-344v700h173v-578z" />
<glyph unicode="M" horiz-adv-x="865" d="M715 701v-702h-179v401l-135 -224h-74l-141 224v-401h-185v702q15 -7 39.5 -20t87 -53.5t110.5 -80t87.5 -94.5t39.5 -104q0 49 36 103t87.5 96.5t103 78t87.5 55.5z" />
<glyph unicode="N" horiz-adv-x="851" d="M524 289v411h177v-701h-177q0 50 -36 122t-87 139.5t-102.5 128t-87.5 97.5l-36 37v-524h-174v701h174q12 -9 32.5 -25.5t74 -66t97.5 -97t87 -109.5t58 -113z" />
<glyph unicode="O" horiz-adv-x="830" d="M700 522v-345q0 -7 -1 -19t-10.5 -42.5t-25.5 -54t-52 -42.5t-84 -19h-349q-7 0 -19 1t-42.5 10.5t-54 26.5t-42.5 53t-19 86v345q0 7 1 19t10.5 43t26.5 54.5t53 42.5t86 19h349q4 0 10 -0.5t24 -4t34.5 -9.5t36.5 -19.5t34 -31.5t24 -47.5t10 -65.5zM178 177h349v345 h-349v-345z" />
<glyph unicode="P" horiz-adv-x="810" d="M700 505q0 -40 -9.5 -73t-24 -53t-34.5 -34.5t-36.5 -21.5t-35 -10.5t-25.5 -4t-13 -0.5h-356v-308h-166v702h533q7 0 18 -1.5t40 -12t51 -29.5t40 -59t18 -95zM166 420h294q47 0 78 23q25 18 25 48q0 20 -10.5 34.5t-24 21.5t-31 11t-25 4.5t-12.5 0.5h-294v-143z" />
<glyph unicode="Q" horiz-adv-x="929" d="M720 118l154 -137v-17q-42 -53 -101 -53q-38 0 -80 21.5t-65 43.5l-22 21h-411q-8 0 -21 1t-46.5 10.5t-59.5 25.5t-47 51.5t-21 83.5v349q0 4 0.5 10.5t4.5 25t10.5 36t21 38t34.5 35.5t52 25.5t72 10.5h349q4 0 10 -0.5t24.5 -4t35 -9.5t37 -19.5t35 -32t24.5 -48.5 t10 -67v-400zM195 169h349v349h-349v-349z" />
<glyph unicode="R" horiz-adv-x="818" d="M543 362q21 -6 31.5 -9.5t35.5 -17t39.5 -30t26.5 -48t12 -70.5v-187h-175v215q0 89 -217 89q-31 0 -63.5 -2t-49.5 -4l-17 -2v-296h-167v701h518q7 0 18.5 -1t41 -10.5t52 -25.5t41 -51t18.5 -83t-12 -82t-27 -50t-38.5 -25t-36 -10t-31.5 -1zM166 420h294q47 0 78 23 q25 18 25 48q0 20 -10.5 34.5t-24 21.5t-31 11t-25 4.5t-12.5 0.5h-294v-143z" />
<glyph unicode="S" horiz-adv-x="824" d="M231 549q20 -6 65.5 -26.5t116 -60.5t131.5 -85.5t105.5 -106.5t44.5 -118q0 -6 -1 -16.5t-10.5 -36.5t-25.5 -45.5t-52 -36t-84 -16.5h-521v182h171v-33q72 -31 173 -31q32 0 73 5t81.5 21t40.5 40q0 32 -55.5 82.5t-134.5 100t-158.5 94t-134.5 72.5l-56 28q0 6 1 15 t10 32.5t24.5 41.5t50 33t80.5 15h528v-183h-173v33q-50 30 -136 30q-74 0 -154 -30z" />
<glyph unicode="T" horiz-adv-x="836" d="M0 699h706v-126h-175q-36 0 -57 -37q-31 -55 -31 -180v-355h-173v355q0 45 -5 81.5t-12.5 58.5t-18.5 38t-20 23.5t-20 11.5t-15.5 4h-9.5h-2h-167v126z" />
<glyph unicode="U" horiz-adv-x="824" d="M523 699h171v-513q0 -49 -17.5 -86t-43 -55t-50.5 -29t-43 -13l-17 -2h-352q-40 0 -71.5 12.5t-49 33.5t-29 41.5t-15.5 45t-5 34.5t-1 18v513h171v-513h352v513z" />
<glyph unicode="V" horiz-adv-x="839" d="M548 699h161l-161 -441l-11 -27.5t-29.5 -62t-45 -78t-54.5 -61.5t-61 -28q-44 0 -90.5 64.5t-70.5 128.5l-25 64l-161 441l161 1l186 -528z" />
<glyph unicode="W" horiz-adv-x="973" d="M478 260l-64 240l-50 -240q-3 -11 -8.5 -28.5t-22 -62.5t-32.5 -79.5t-37.5 -62.5t-39.5 -28q-27 0 -58.5 65.5t-49.5 130.5l-18 65l-98 440h174l50 -527l91 527h201l99 -527l38 527h190l-104 -440q-1 -5 -3.5 -14.5t-10 -36.5t-15 -52t-19.5 -55t-23.5 -51.5 t-25.5 -36.5t-27 -15q-34 0 -68 65.5t-51 130.5z" />
<glyph unicode="X" horiz-adv-x="789" d="M659 173v-174h-180v174q0 29 -15.5 50.5t-38 31.5t-45 15.5t-38.5 5.5l-15 1h-8.5t-20.5 -2t-29 -5.5t-31 -11.5t-29 -18.5t-20.5 -28t-8.5 -38.5v-174h-179v174q0 7 1 19t10.5 43t26.5 54.5t54 43t87 19.5q-50 0 -87 18t-54 44t-26.5 51.5t-10.5 43.5l-1 18v173h179 v-173q0 -34 37 -53.5t73 -21.5l37 -2q6 0 16.5 0.5t36.5 4.5t46 11.5t36.5 23t16.5 37.5v173h180v-173q0 -7 -1 -19t-11 -42t-26.5 -53t-54 -42t-87.5 -19q50 0 87.5 -18.5t54 -45t26.5 -52.5t11 -44z" />
<glyph unicode="Y" horiz-adv-x="792" d="M247 1v350q-48 0 -91.5 18t-70.5 43.5t-47.5 50.5t-29.5 43l-9 18v177h188v-177q0 -33 36.5 -52t72.5 -21l37 -2q6 0 16.5 0.5t36.5 4.5t45.5 11t36 22.5t16.5 36.5v177h178v-177q-2 -7 -7 -18.5t-23.5 -41.5t-42 -53t-65 -41.5t-89.5 -18.5v-350h-188z" />
<glyph unicode="Z" horiz-adv-x="832" d="M0 701h702v-176l-526 -374h351v32h175v-184h-702v186l532 363h-362v-32h-170v185z" />
<glyph unicode="[" horiz-adv-x="301" d="M202 107v-106h-201v748h201v-104q-29 0 -50 -8.5t-31 -20.5t-15.5 -24t-5.5 -20l-1 -9v-378q0 -3 0.5 -8.5t6 -19t15.5 -23.5t31 -18.5t50 -8.5z" />
<glyph unicode="\" horiz-adv-x="456" d="M-1 799h94l278 -850h-95z" />
<glyph unicode="]" horiz-adv-x="301" d="M-1 749h199v-748h-199v104q34 0 56.5 10t31 25.5t11 25t2.5 17.5v380q0 8 -2.5 17.5t-11 26.5t-31 27.5t-56.5 10.5v104z" />
<glyph unicode="^" horiz-adv-x="499" d="M253 944l-253 -243v59l256 246l243 -246v-59z" />
<glyph unicode="_" horiz-adv-x="586" d="M0 -46h500v-53h-500v53z" />
<glyph unicode="`" horiz-adv-x="217" d="M-5 832h176l48 -81h-176z" />
<glyph unicode="a" horiz-adv-x="734" d="M630 490v-419h-140v206h-271v-206h-148v419q0 29 8 52t21 37t29 24.5t31.5 15.5t29 7.5t21.5 3.5h8h271q39 0 68 -14.5t42 -35t20.5 -41t8.5 -34.5zM219 376h271v114h-271v-114z" />
<glyph unicode="b" horiz-adv-x="734" d="M631 209q0 -39 -15 -68t-33 -42t-41.5 -20.5t-32.5 -8.5t-15 -1h-425v562h425q6 0 15 -1t32.5 -8.5t41.5 -20.5t33 -41.5t15 -67.5q0 -44 -11.5 -74.5t-30.5 -45t-37 -20t-37 -6.5q16 0 29 -2t30 -10.5t28.5 -22.5t20 -40t8.5 -62zM192 395h244q3 0 8 0.5t18 4t23 9.5 t18 19.5t8 31.5t-8 31t-18.5 19t-21.5 9.5t-19 4.5h-8h-244v-129zM192 178h244q3 0 8 0.5t18 4t23 9.5t18 19t8 31q0 30 -21.5 46t-53.5 16h-244v-126z" />
<glyph unicode="c" horiz-adv-x="733" d="M493 238h137v-29q0 -5 -1 -14.5t-7.5 -33.5t-19 -42t-38.5 -33t-62 -15h-294q-6 0 -15.5 1t-33.5 8.5t-42 20.5t-33 41.5t-15 66.5v283q0 6 1 15.5t8.5 33t20.5 41.5t41.5 33t67.5 15h282q6 0 15 -1t33.5 -8t43 -20t33.5 -41.5t15 -67.5v-25h-137v29h-275v-284h275v26z " />
<glyph unicode="d" horiz-adv-x="750" d="M631 492v-285q0 -38 -14 -66t-34 -41t-39.5 -20t-33.5 -8l-14 -1h-426v561h426q38 0 65.5 -14.5t40.5 -35t20 -41t8 -35.5zM488 291v125q0 3 -0.5 8.5t-5 19.5t-11.5 24.5t-23 19t-38 8.5h-193v-282h193h8.5t18.5 4.5t23.5 11.5t19 23t8.5 38z" />
<glyph unicode="e" horiz-adv-x="733" d="M493 516h-283v-108h275v-100h-275v-118h283v26h136q0 -40 -14 -69.5t-32 -43.5t-42 -22t-35 -9t-21 -1h-414v558h414q9 0 19.5 -0.5t35 -8t42.5 -21t32.5 -42t14.5 -67.5h-136v26z" />
<glyph unicode="f" horiz-adv-x="735" d="M632 490h-138v26h-283v-113h272v-99h-272v-235h-140v561h412q6 0 12.5 -0.5t22.5 -3t29.5 -7.5t30 -15.5t27.5 -24.5t19 -37t8 -52z" />
<glyph unicode="g" horiz-adv-x="733" d="M630 496v-29h-137v29h-275v-284h275v7q0 43 -19.5 65.5t-36.5 25.5h-13v51h206v-149q0 -3 -0.5 -8t-3 -19.5t-7 -28t-15 -30t-24.5 -28t-36.5 -19.5t-50.5 -8h-275q-3 0 -8.5 0.5t-21 3t-29.5 7.5t-31 15.5t-29.5 24.5t-21 37.5t-8.5 52.5v284q0 5 1 14.5t9 33t22 41.5 t44.5 32.5t72.5 14.5h275q6 0 15 -1t32.5 -8.5t41.5 -20.5t33 -40.5t15 -65.5z" />
<glyph unicode="h" horiz-adv-x="754" d="M634 492v-421h-138v207h-285v-207h-136v421q0 5 1 14.5t8 33.5t20 42t41 33t66 15v-255h285v255q38 0 66.5 -14t41.5 -34.5t20.5 -41t8.5 -34.5z" />
<glyph unicode="i" horiz-adv-x="274" d="M155 631v-559h-139v423q0 6 1 15t8.5 32.5t20.5 41.5t41.5 32.5t67.5 14.5z" />
<glyph unicode="j" horiz-adv-x="312" d="M79 618h130v-442q0 -46 -14.5 -83.5t-38 -60.5t-52 -40t-57 -25t-52 -12.5t-37.5 -4.5h-15v106q38 0 66 23.5t41 56.5t20.5 66.5t7.5 56.5l1 23v336z" />
<glyph unicode="k" horiz-adv-x="613" d="M509 220v-149h-135v149q0 65 -105 65q-17 0 -35.5 -1.5t-28.5 -3.5l-9 -2v-207h-139v560h139v-178q26 -4 59 -4q119 0 119 47v135h135v-135q0 -6 -0.5 -15.5t-7 -33.5t-17.5 -42t-35.5 -33.5t-58.5 -16.5q34 -3 58.5 -18t35.5 -34.5t17.5 -38t7.5 -31.5v-13z" />
<glyph unicode="l" horiz-adv-x="546" d="M187 167h256v-11q0 -24 -12.5 -42t-30 -26.5t-35 -13t-29.5 -4.5l-12 -1h-276v560h139v-462z" />
<glyph unicode="m" horiz-adv-x="763" d="M644 631v-562h-144v321l-108 -179h-59l-113 179v-321h-148v562q6 -3 16.5 -8.5t41 -23t58 -36t61 -45t57.5 -52.5t41 -57t17 -60q0 39 28.5 82.5t70 77.5t82.5 62.5t70 43.5z" />
<glyph unicode="n" horiz-adv-x="751" d="M489 301v329h142v-561h-142q0 40 -28.5 97.5t-69.5 112t-82 102.5t-70 78l-29 29v-419h-139v561h139q10 -8 26 -21t59.5 -52.5t78.5 -77.5t69.5 -87.5t45.5 -90.5z" />
<glyph unicode="o" horiz-adv-x="734" d="M630 488v-276q0 -3 -0.5 -8.5t-3 -20t-7 -28t-15 -29.5t-24.5 -28t-37 -20t-51 -8h-280q-2 0 -7.5 0.5t-20 3t-28 7.5t-29.5 15.5t-28 25t-20 38t-8 52.5v276q0 3 0.5 8t3 19.5t7.5 28t15.5 30t25 28.5t38 20t51.5 8h280q5 0 14.5 -1t33.5 -8.5t42 -21t33 -43t15 -68.5z M212 212h280v276h-280v-276z" />
<glyph unicode="p" horiz-adv-x="718" d="M630 474q0 -32 -8 -58t-19 -42t-27 -28t-29 -17.5t-28.5 -8.5t-21 -3h-9.5h-285v-247h-133v562h426q6 0 15 -1t32 -10t40.5 -23.5t32 -47t14.5 -76.5zM203 406h235q42 0 67 22q15 14 15 35q0 16 -8.5 27.5t-19 17t-24.5 9t-20 4t-10 0.5h-235v-115z" />
<glyph unicode="q" horiz-adv-x="830" d="M663 155l124 -109v-14q-34 -42 -81 -42q-31 0 -64.5 17t-51.5 34l-18 18h-329h-8.5t-21.5 3t-31 7.5t-33 15t-31 24.5t-22 36.5t-9 50.5v279q0 3 0.5 8.5t3.5 20.5t8.5 28.5t17 30.5t27.5 29t42 20t57 8h280h8t19.5 -3t28 -8t29.5 -15.5t27.5 -25.5t19.5 -39t8 -54v-320z M243 196h280v279h-280v-279z" />
<glyph unicode="r" horiz-adv-x="723" d="M503 360l25.5 -7.5t28.5 -13.5t31.5 -24.5t21 -38.5t9.5 -56v-150h-140v172q0 71 -173 71q-25 0 -51 -1.5t-40 -2.5l-13 -2v-237h-134v561h414q6 0 15 -1t32.5 -8.5t42 -20.5t33 -41t14.5 -66t-9.5 -65.5t-21.5 -40t-31 -20t-29 -8t-25 -0.5zM202 406h235q42 0 66 22 q16 14 16 35q0 16 -8.5 27.5t-19 17t-24.5 9t-20 3.5h-10h-235v-114z" />
<glyph unicode="s" horiz-adv-x="728" d="M254 509q16 -5 52.5 -21.5t93 -48.5t105.5 -68.5t84.5 -85t35.5 -93.5q0 -5 -1 -13.5t-8.5 -29t-20.5 -36.5t-41.5 -29t-67.5 -13h-417v145h137v-26q58 -25 139 -25q17 0 40.5 2.5t51 8t46 16.5t18.5 26q0 26 -44.5 66t-108 79.5t-127 75.5t-107.5 58l-45 23q0 4 1 11.5 t8 26.5t19.5 33.5t40 26t64.5 11.5h423v-146h-139v26q-40 24 -109 24q-58 0 -123 -24z" />
<glyph unicode="t" horiz-adv-x="739" d="M71 629h564v-101h-140q-6 1 -11.5 0.5t-17 -9.5t-20 -25t-15 -52.5t-6.5 -86.5v-284h-138v284q0 50 -8 85.5t-17.5 52t-23.5 25.5t-20 10t-13 0h-1h-133v101z" />
<glyph unicode="u" horiz-adv-x="728" d="M488 629h137v-410q0 -39 -14.5 -68.5t-34.5 -44t-40 -23.5t-34 -10l-14 -2h-282q-28 0 -50.5 8t-36.5 19.5t-24 28t-15 30t-7.5 29.5t-3 22t-0.5 11v410h137v-410h282v410z" />
<glyph unicode="v" horiz-adv-x="742" d="M509 629h129l-129 -353q-3 -8 -8.5 -22t-23.5 -49t-36 -62.5t-43.5 -49.5t-49.5 -22q-22 0 -45.5 21t-41 51.5t-32 60.5t-22.5 51l-7 21l-129 353l129 1l148 -422z" />
<glyph unicode="w" horiz-adv-x="862" d="M467 278l-51 192l-40 -192q-3 -9 -7.5 -23t-17.5 -50t-26 -63.5t-30 -50t-31 -22.5q-22 0 -47.5 52.5t-39.5 104.5l-14 52l-79 352h140l40 -422l72 422h161l79 -422l31 422h152l-83 -352q-1 -4 -3 -11.5t-8 -29.5t-12 -41.5t-15.5 -43.5t-19 -41.5t-20.5 -29.5t-22 -12 q-17 0 -34.5 21.5t-30.5 52.5t-23.5 61.5t-15.5 51.5z" />
<glyph unicode="x" horiz-adv-x="697" d="M593 208v-139h-144v139q0 24 -12.5 41t-30.5 25t-35.5 12.5t-30.5 4.5l-12 1q-5 0 -13 -0.5t-28.5 -5t-36 -12.5t-28 -25t-12.5 -41v-139h-143v139v8.5t3 20t8 28t15.5 30t25 28.5t38.5 20.5t53 8.5q-40 0 -69.5 14t-43 35t-21 41.5t-8.5 34.5l-1 15v138h143v-138 q0 -18 12 -30.5t29.5 -18.5t34.5 -9t29 -4h13q5 0 13 0.5t29 3.5t37 9t29 18.5t13 30.5v138h144v-138q0 -6 -1 -15.5t-8.5 -33.5t-21 -42.5t-43 -33.5t-70.5 -15q41 0 70.5 -15t43 -36t21 -42t8.5 -36z" />
<glyph unicode="y" horiz-adv-x="699" d="M264 71v280q-39 0 -73.5 14.5t-56.5 34.5t-38.5 40.5t-23.5 34.5l-7 14v142h151v-142q0 -16 12 -28.5t29 -18t34 -9t29 -3.5l12 -1q5 0 13.5 0.5t29 4t36.5 9t29 18t13 28.5v142h143v-142q-2 -5 -6 -14.5t-18.5 -33.5t-33.5 -42t-52 -33t-72 -15v-280h-150z" />
<glyph unicode="z" horiz-adv-x="735" d="M70 631h562v-141l-421 -299h281v25h140v-147h-562v149l426 290h-290v-25h-136v148z" />
<glyph unicode="{" horiz-adv-x="342" d="M264 32v-78q-60 -24 -121 -24q-54 0 -86 24v334l-53 84l53 72v353q24 23 86 23q74 0 121 -23v-95q-29 0 -51 -15t-31.5 -36.5t-15.5 -43t-6 -36.5l-1 -15v-385q0 -6 0.5 -15t6.5 -33t15.5 -42.5t31.5 -33.5t51 -15z" />
<glyph unicode="|" horiz-adv-x="185" d="M1 800h98v-846h-98v846z" />
<glyph unicode="}" horiz-adv-x="322" d="M-1 32q29 0 51 14.5t31.5 34.5t15.5 40.5t7 34.5v15v385q0 6 -0.5 15.5t-6.5 34.5t-15.5 44t-31.5 34.5t-51 15.5v97q45 20 98 20q28 0 55 -5t40 -10l14 -5v-353l53 -72l-53 -84v-334q-47 -24 -109 -24q-27 0 -51.5 6t-35.5 12l-11 6v78z" />
<glyph unicode="~" d="M833 576v-75q0 -35 -54 -61t-165 -26q-94 0 -156 13.5t-87 30t-67 30t-101 13.5q-40 0 -76 -9t-58 -21.5t-38 -25.5t-23 -22l-7 -9v87q2 4 7 10t22.5 22t39 28t57.5 22t76 10q59 0 101 -14.5t67 -31.5t87 -31.5t156 -14.5q96 0 149 23t70 52z" />
<glyph unicode="&#xa1;" horiz-adv-x="209" d="M124 578h-123v124h123v-124zM124 1h-123v527h123v-527z" />
<glyph unicode="&#xa2;" horiz-adv-x="600" d="M253 600h94v-99h35q16 0 33 -3.5t41 -14.5t39.5 -38t15.5 -67v-26h-136v26h-28v-254h28v27h136v-27q0 -5 -0.5 -13.5t-7.5 -29.5t-18.5 -37t-37.5 -29.5t-61 -13.5h-39v-47h-94v47h-130q-5 0 -13.5 0.5t-30 7.5t-37.5 18.5t-29.5 37t-13.5 59.5v254q-1 5 -1 14 q0 16 4 31.5t15.5 34.5t38.5 31t67 12h130v99zM123 378v-254h130v254h-130z" />
<glyph unicode="&#xa3;" horiz-adv-x="1331" d="M599 747l294 -260v-484l-294 -265l-290 265v484zM821 35v418l-222 201l-214 -195l214 -206v-221l-220 211v-208l220 -202zM868 796q-223 124 -458 58q-172 -46 -289 -182l-19 -20l151 -106l-330 -97l-58 364l149 -102l15 18q143 171 353 226q284 81 536 -66 q244 -137 325 -405l-102 -28q-69 223 -273 340z" />
<glyph unicode="&#xa5;" horiz-adv-x="814" d="M372 968l351 -315v-583l-351 -315l-350 315v583zM639 107v509l-267 239l-259 -234l260 -248v-267l-267 256v-255l266 -238z" />
<glyph unicode="&#xa6;" horiz-adv-x="195" d="M1 800h107v-360h-107v360zM1 311h107v-360h-107v360z" />
<glyph unicode="&#xa8;" d="M373 833h83v-82h-83v82zM204 833h83v-82h-83v82z" />
<glyph unicode="&#xa9;" horiz-adv-x="489" d="M295 651h-40q-6 45 -56 45q-28 0 -44.5 -25t-16.5 -69q0 -43 17 -66.5t47 -23.5q23 0 37.5 13t18.5 34h40q-3 -35 -29.5 -57t-67.5 -22q-51 0 -79 33t-28 91q0 55 30 88t78 33q39 0 64.5 -20.5t28.5 -53.5zM201 803q83 0 142 -59t59 -142q0 -84 -60 -142.5t-141 -58.5 t-141 60t-60 141t59 141t142 60zM23 600q0 -72 52 -124t124 -52t124 52t52 124t-52 124t-124 52t-124 -52t-52 -124z" />
<glyph unicode="&#xaa;" horiz-adv-x="586" d="M585 598v-300h-100v148h-195v-148h-106v300q0 45 26.5 70t53.5 28l26 3h195q44 0 69 -25.5t28 -50.5zM290 516h195v82h-195v-82z" />
<glyph unicode="&#xab;" horiz-adv-x="540" d="M60 296l248 -255h-55l-255 255l255 246h55zM210 296l244 -255h-52l-254 255l254 246h52z" />
<glyph unicode="&#xac;" d="M448 100v174h-448v53h500v-227h-52z" />
<glyph unicode="&#xad;" horiz-adv-x="334" d="M0 327h250v-53h-250v53z" />
<glyph unicode="&#xae;" horiz-adv-x="486" d="M197 689h-34v-74h36q57 0 57 36q0 38 -59 38zM120 717h85q95 0 95 -63q0 -22 -14 -38.5t-38 -21.5l51 -103h-48l-46 96h-42v-96h-43v226zM374 599q0 76 -52 125.5t-122 49.5q-73 0 -123 -52t-50 -122q0 -69 51.5 -121t120.5 -52q70 0 122.5 51t52.5 121zM200 800 q79 0 139.5 -58.5t60.5 -141.5q0 -84 -61 -141.5t-139 -57.5q-81 0 -140 60t-59 139q0 78 57.5 139t141.5 61z" />
<glyph unicode="&#xb0;" horiz-adv-x="248" d="M134 833q0 30 -19 51t-47 21q-35 0 -52 -20t-17 -52q0 -29 17 -49.5t52 -20.5q28 0 47 21.5t19 48.5zM159 833q0 -36 -27 -60t-64 -24q-43 0 -68.5 23.5t-25.5 60.5t26 62t68 25q36 0 63.5 -25.5t27.5 -61.5z" />
<glyph unicode="&#xb1;" horiz-adv-x="588" d="M219 649h60v-219h219v-62h-219v-219h-60v219h-218v62h218v219zM0 98h500v-53h-500v53z" />
<glyph unicode="&#xb2;" horiz-adv-x="415" d="M117 698h212v-232h-212v-115h212v-51h-284v110q0 31 6.5 53.5t15 33.5t20.5 17t18 7t12 1h140v118h-212q6 59 64 59z" />
<glyph unicode="&#xb3;" horiz-adv-x="333" d="M305 463v-115q0 -21 -16.5 -33t-32.5 -13l-17 -2h-140q-32 0 -50.5 13t-20.5 26l-2 13h206v115h-159v56h159v120h-206q0 2 0.5 6t4 14t10 17.5t20 14t32.5 6.5h146q3 0 7.5 -1t15.5 -4.5t20 -8.5t16 -15.5t7 -23.5v-120q0 -30 -33 -30q15 -1 23 -9.5t9 -16.5z" />
<glyph unicode="&#xb4;" d="M286 829h177l-50 -77h-175z" />
<glyph unicode="&#xb6;" horiz-adv-x="545" d="M452 751v-50h-50v-701h-56v701h-90v-701h-57v397q-96 4 -148 51t-52 126q0 80 54.5 128.5t145.5 48.5h253z" />
<glyph unicode="&#xb7;" horiz-adv-x="161" d="M100 372v-50q0 -24 -28 -24h-4l-40 2q-12 0 -19 5.5t-8 10.5l-1 6v50q0 18 7 23.5t23 5.5q5 0 19 -0.5t23 -0.5q12 0 19 -7t8 -14z" />
<glyph unicode="&#xb8;" d="M380 0v-85q3 0 9 -0.5t20.5 -5.5t26 -13t20.5 -26t9 -43q0 -22 -9 -38t-20 -23.5t-25.5 -11.5t-20.5 -4.5t-10 -0.5h-46v34h46q4 0 9 1t14 12t9 31q0 15 -8 28t-16 19l-8 6q-5 0 -12.5 1t-20.5 9.5t-13 24.5v85h46z" />
<glyph unicode="&#xb9;" horiz-adv-x="302" d="M49 702h166v-401h-72v329h-94v72z" />
<glyph unicode="&#xba;" horiz-adv-x="399" d="M328 627v-259q0 -30 -17 -46.5t-33 -18.5l-17 -2h-140q-31 0 -48.5 14.5t-20.5 26t-3 23.5v262q0 3 0.5 8t4 17t10 21.5t20 17.5t32.5 8h147q7 0 15.5 -2t21 -8t20.5 -22t8 -40zM121 368h140v259h-140v-259z" />
<glyph unicode="&#xbb;" horiz-adv-x="546" d="M60 545l253 -246l-253 -253h-59l253 253l-246 246h52zM209 545l253 -246l-253 -253h-62l257 253l-247 246h52z" />
<glyph unicode="&#xbc;" horiz-adv-x="690" d="M0 700h166v-400h-72v328h-94v72zM366 800h94l-287 -851h-84zM544 397l-2 -236h61v-51h-61v-110h-72v110h-156q0 223 8 257q7 27 27 30q6 1 16 1l1 2v-239h104v134v32q1 0 1 19l-1 51h74z" />
<glyph unicode="&#xbd;" horiz-adv-x="694" d="M0 700h166v-400h-72v328h-94v72zM363 800h94l-287 -851h-84zM395 390h208v-228h-208v-113h208v-50h-278v108q0 30 6.5 52t15 32.5t20 16.5t17.5 7t11 1h137v116h-207q2 24 15 38t24 17t23 3h8z" />
<glyph unicode="&#xbe;" horiz-adv-x="786" d="M280 463v-115q0 -21 -16.5 -33t-33.5 -13l-16 -2h-140q-32 0 -50.5 13t-20.5 26l-2 13h206v115h-159v56h159v120h-206q0 2 0.5 6t4 14t10 17.5t20 14t32.5 6.5h146q3 0 7.5 -1t15.5 -4.5t20 -8.5t16 -15.5t7 -23.5v-120q0 -30 -33 -30q15 -1 23 -9.5t9 -16.5zM463 800h94 l-287 -851h-84zM641 400l-1 -239h61v-51h-61v-111h-73v111h-158q0 224 8 259q7 28 27 31q6 1 17 1v2v-242h105v136q0 32 1 32v20v51h74z" />
<glyph unicode="&#xbf;" horiz-adv-x="362" d="M127 570h-126v130h126v-130zM327 189q0 -53 -21 -91.5t-50.5 -56.5t-59 -28.5t-50.5 -11.5l-21 -1h-149v81h149q1 1 3 1q12 2 24.5 6.5t33.5 15.5t34 33.5t13 51.5q0 25 -14 47t-33.5 36.5t-39 25t-33.5 15.5l-14 5q-4 0 -10.5 1.5t-23.5 6t-30 11t-23.5 18t-10.5 26.5 v136h125v-136q4 0 11.5 -1t28 -5.5t39.5 -11.5t42.5 -22t40 -34t28 -50t11.5 -68z" />
<glyph unicode="&#xc0;" d="M700 525v-524h-175v258h-339v-258h-185v524q0 49 19 85t46.5 52.5t54.5 26t46 10.5l19 1h339q49 0 85 -18t52.5 -44t26 -51.5t10.5 -43.5zM186 382h339v143h-339v-143zM238 832h176l48 -81h-176z" />
<glyph unicode="&#xc1;" d="M700 525v-524h-175v258h-339v-258h-185v524q0 49 19 85t46.5 52.5t54.5 26t46 10.5l19 1h339q49 0 85 -18t52.5 -44t26 -51.5t10.5 -43.5zM186 382h339v143h-339v-143zM286 829h177l-50 -77h-175z" />
<glyph unicode="&#xc2;" d="M700 525v-524h-175v258h-339v-258h-185v524q0 49 19 85t46.5 52.5t54.5 26t46 10.5l19 1h339q49 0 85 -18t52.5 -44t26 -51.5t10.5 -43.5zM186 382h339v143h-339v-143zM354 829h172l49 -79h-176zM180 829h174l-51 -79h-172z" />
<glyph unicode="&#xc3;" d="M700 525v-524h-175v258h-339v-258h-185v524q0 49 19 85t46.5 52.5t54.5 26t46 10.5l19 1h339q49 0 85 -18t52.5 -44t26 -51.5t10.5 -43.5zM186 382h339v143h-339v-143zM468 821q96 0 96 28q1 -6 1 -17q0 -26 -19.5 -39t-77.5 -13q-45 0 -75 6.5t-42 14t-29.5 14 t-40.5 6.5q-30 0 -54 -10.5t-31.5 -18.5t-9.5 -12v41q3 4 9 10.5t30.5 17t55.5 10.5q28 0 70.5 -19t116.5 -19z" />
<glyph unicode="&#xc4;" d="M700 525v-524h-175v258h-339v-258h-185v524q0 49 19 85t46.5 52.5t54.5 26t46 10.5l19 1h339q49 0 85 -18t52.5 -44t26 -51.5t10.5 -43.5zM186 382h339v143h-339v-143zM393 833h83v-82h-83v82zM224 833h83v-82h-83v82z" />
<glyph unicode="&#xc5;" d="M443 834q0 30 -19 51t-47 21q-35 0 -52 -20t-17 -52q0 -29 17 -49.5t52 -20.5q28 0 47 21.5t19 48.5zM468 834q0 -36 -27 -60t-64 -24q-43 0 -68.5 23.5t-25.5 60.5t26 62t68 25q36 0 63.5 -25.5t27.5 -61.5zM700 525v-524h-175v258h-339v-258h-185v524q0 49 19 85 t46.5 52.5t54.5 26t46 10.5l19 1h339q49 0 85 -18t52.5 -44t26 -51.5t10.5 -43.5zM186 382h339v143h-339v-143z" />
<glyph unicode="&#xc6;" horiz-adv-x="1393" d="M700 525v-524h-175v258h-339v-258h-185v524q0 49 19 85t46.5 52.5t54.5 26t46 10.5l19 1h339q49 0 85 -18t52.5 -44t26 -51.5t10.5 -43.5zM186 382h339v143h-339v-143zM1091 556h-354v-135h344v-124h-344v-148h354v32h170q0 -38 -10 -68t-24.5 -48.5t-35 -32t-36.5 -19.5 t-36 -9.5t-26 -3.5h-12h-518v698h518q11 0 24 -1t43.5 -10.5t53 -26t41 -52t18.5 -84.5h-170v32z" />
<glyph unicode="&#xc7;" d="M529 210h171v-36q0 -4 -0.5 -10.5t-3.5 -24t-8.5 -34t-17.5 -36.5t-28 -34t-42.5 -24t-59.5 -10h-368q-4 0 -10 0.5t-24 4t-34.5 9t-36.5 18.5t-34 30.5t-24 46.5t-10 64v354q0 7 1 18.5t10.5 41t26 52.5t52 41.5t83.5 18.5h353q7 0 19 -1t42 -10.5t53 -25.5t42 -51.5 t19 -83.5v-32h-171v36h-344v-355h344v33zM375 0v-85q3 0 9 -0.5t20.5 -5.5t26 -13t20.5 -26t9 -43q0 -22 -9 -38t-20 -23.5t-25.5 -11.5t-20.5 -4.5t-10 -0.5h-46v34h46q4 0 9 1t14 12t9 31q0 15 -8 28t-16 19l-8 6q-5 0 -12.5 1t-20.5 9.5t-13 24.5v85h46z" />
<glyph unicode="&#xc8;" d="M529 557h-354v-135h344v-124h-344v-148h354v32h170q0 -38 -10 -68t-24.5 -48.5t-35 -32t-36.5 -19.5t-36 -9.5t-26 -3.5h-12h-518v698h518q11 0 24 -1t43.5 -10.5t53 -26t41 -52t18.5 -84.5h-170v32zM239 832h176l48 -81h-176z" />
<glyph unicode="&#xc9;" d="M529 557h-354v-135h344v-124h-344v-148h354v32h170q0 -38 -10 -68t-24.5 -48.5t-35 -32t-36.5 -19.5t-36 -9.5t-26 -3.5h-12h-518v698h518q11 0 24 -1t43.5 -10.5t53 -26t41 -52t18.5 -84.5h-170v32zM286 829h177l-50 -77h-175z" />
<glyph unicode="&#xca;" d="M529 557h-354v-135h344v-124h-344v-148h354v32h170q0 -38 -10 -68t-24.5 -48.5t-35 -32t-36.5 -19.5t-36 -9.5t-26 -3.5h-12h-518v698h518q11 0 24 -1t43.5 -10.5t53 -26t41 -52t18.5 -84.5h-170v32zM354 829h172l49 -79h-176zM180 829h174l-51 -79h-172z" />
<glyph unicode="&#xcb;" d="M529 557h-354v-135h344v-124h-344v-148h354v32h170q0 -38 -10 -68t-24.5 -48.5t-35 -32t-36.5 -19.5t-36 -9.5t-26 -3.5h-12h-518v698h518q11 0 24 -1t43.5 -10.5t53 -26t41 -52t18.5 -84.5h-170v32zM373 833h83v-82h-83v82zM204 833h83v-82h-83v82z" />
<glyph unicode="&#xcc;" horiz-adv-x="271" d="M172 701v-699h-173v529q0 7 1 18.5t10.5 40.5t25.5 51.5t52 41t84 18.5zM-27 832h176l48 -81h-176z" />
<glyph unicode="&#xcd;" horiz-adv-x="271" d="M172 701v-699h-173v529q0 7 1 18.5t10.5 40.5t25.5 51.5t52 41t84 18.5zM21 829h177l-50 -77h-175z" />
<glyph unicode="&#xce;" horiz-adv-x="271" d="M172 701v-699h-173v529q0 7 1 18.5t10.5 40.5t25.5 51.5t52 41t84 18.5zM90 833h172l49 -79h-176zM-84 833h174l-51 -79h-172z" />
<glyph unicode="&#xcf;" horiz-adv-x="271" d="M172 701v-699h-173v529q0 7 1 18.5t10.5 40.5t25.5 51.5t52 41t84 18.5zM137 833h83v-82h-83v82zM-32 833h83v-82h-83v82z" />
<glyph unicode="&#xd1;" horiz-adv-x="865" d="M524 289v411h177v-701h-177q0 50 -36 122t-87 139.5t-102.5 128t-87.5 97.5l-36 37v-524h-174v701h174q12 -9 32.5 -25.5t74 -66t97.5 -97t87 -109.5t58 -113zM476 821q96 0 96 28q1 -6 1 -17q0 -26 -19.5 -39t-77.5 -13q-45 0 -75 6.5t-42 14t-29.5 14t-40.5 6.5 q-30 0 -54 -10.5t-31.5 -18.5t-9.5 -12v41q3 4 9 10.5t30.5 17t55.5 10.5q28 0 70.5 -19t116.5 -19z" />
<glyph unicode="&#xd2;" d="M700 522v-345q0 -7 -1 -19t-10.5 -42.5t-25.5 -54t-52 -42.5t-84 -19h-349q-7 0 -19 1t-42.5 10.5t-54 26.5t-42.5 53t-19 86v345q0 7 1 19t10.5 43t26.5 54.5t53 42.5t86 19h349q4 0 10 -0.5t24 -4t34.5 -9.5t36.5 -19.5t34 -31.5t24 -47.5t10 -65.5zM178 177h349v345 h-349v-345zM244 832h176l48 -81h-176z" />
<glyph unicode="&#xd3;" d="M700 522v-345q0 -7 -1 -19t-10.5 -42.5t-25.5 -54t-52 -42.5t-84 -19h-349q-7 0 -19 1t-42.5 10.5t-54 26.5t-42.5 53t-19 86v345q0 7 1 19t10.5 43t26.5 54.5t53 42.5t86 19h349q4 0 10 -0.5t24 -4t34.5 -9.5t36.5 -19.5t34 -31.5t24 -47.5t10 -65.5zM178 177h349v345 h-349v-345zM294 829h177l-50 -77h-175z" />
<glyph unicode="&#xd4;" d="M698 522v-345q0 -7 -1 -19t-10.5 -42.5t-25.5 -54t-52 -42.5t-84 -19h-349q-7 0 -19 1t-42.5 10.5t-54 26.5t-42.5 53t-19 86v345q0 7 1 19t10.5 43t26.5 54.5t53 42.5t86 19h349q4 0 10 -0.5t24 -4t34.5 -9.5t36.5 -19.5t34 -31.5t24 -47.5t10 -65.5zM176 177h349v345 h-349v-345zM358 829h172l49 -79h-176zM184 829h174l-51 -79h-172z" />
<glyph unicode="&#xd5;" horiz-adv-x="868" d="M700 522v-345q0 -7 -1 -19t-10.5 -42.5t-25.5 -54t-52 -42.5t-84 -19h-349q-7 0 -19 1t-42.5 10.5t-54 26.5t-42.5 53t-19 86v345q0 7 1 19t10.5 43t26.5 54.5t53 42.5t86 19h349q4 0 10 -0.5t24 -4t34.5 -9.5t36.5 -19.5t34 -31.5t24 -47.5t10 -65.5zM178 177h349v345 h-349v-345zM477 823q96 0 96 28q1 -6 1 -17q0 -26 -20 -39t-77 -13q-45 0 -75 6.5t-42 14t-29.5 14t-40.5 6.5q-30 0 -54 -10.5t-31.5 -18.5t-9.5 -12v41q3 4 9 10.5t30.5 17t55.5 10.5q28 0 70.5 -19t116.5 -19z" />
<glyph unicode="&#xd6;" d="M700 522v-345q0 -7 -1 -19t-10.5 -42.5t-25.5 -54t-52 -42.5t-84 -19h-349q-7 0 -19 1t-42.5 10.5t-54 26.5t-42.5 53t-19 86v345q0 7 1 19t10.5 43t26.5 54.5t53 42.5t86 19h349q4 0 10 -0.5t24 -4t34.5 -9.5t36.5 -19.5t34 -31.5t24 -47.5t10 -65.5zM178 177h349v345 h-349v-345zM398 833h83v-82h-83v82zM229 833h83v-82h-83v82z" />
<glyph unicode="&#xd7;" horiz-adv-x="490" d="M356 397l42 -42l-155 -155l155 -155l-44 -44l-155 155l-156 -154l-41 41l155 155l-154 154l44 44l154 -154z" />
<glyph unicode="&#xd8;" horiz-adv-x="868" d="M700 522v-345q0 -7 -1 -19t-10.5 -42.5t-25.5 -54t-52 -42.5t-84 -19h-349q-7 0 -19 1t-42.5 10.5t-54 26.5t-42.5 53t-19 86v345q0 7 1 19t10.5 43t26.5 54.5t53 42.5t86 19h349q4 0 10 -0.5t24 -4t34.5 -9.5t36.5 -19.5t34 -31.5t24 -47.5t10 -65.5zM178 177h349v345 h-349v-345zM449 788h94l-287 -851h-84z" />
<glyph unicode="&#xd9;" d="M523 699h171v-513q0 -49 -17.5 -86t-43 -55t-50.5 -29t-43 -13l-17 -2h-352q-40 0 -71.5 12.5t-49 33.5t-29 41.5t-15.5 45t-5 34.5t-1 18v513h171v-513h352v513zM235 832h176l48 -81h-176z" />
<glyph unicode="&#xda;" d="M523 699h171v-513q0 -49 -17.5 -86t-43 -55t-50.5 -29t-43 -13l-17 -2h-352q-40 0 -71.5 12.5t-49 33.5t-29 41.5t-15.5 45t-5 34.5t-1 18v513h171v-513h352v513zM286 829h177l-50 -77h-175z" />
<glyph unicode="&#xdb;" d="M523 699h171v-513q0 -49 -17.5 -86t-43 -55t-50.5 -29t-43 -13l-17 -2h-352q-40 0 -71.5 12.5t-49 33.5t-29 41.5t-15.5 45t-5 34.5t-1 18v513h171v-513h352v513zM354 829h172l49 -79h-176zM180 829h174l-51 -79h-172z" />
<glyph unicode="&#xdc;" d="M523 699h171v-513q0 -49 -17.5 -86t-43 -55t-50.5 -29t-43 -13l-17 -2h-352q-40 0 -71.5 12.5t-49 33.5t-29 41.5t-15.5 45t-5 34.5t-1 18v513h171v-513h352v513zM388 833h83v-82h-83v82zM219 833h83v-82h-83v82z" />
<glyph unicode="&#xdd;" d="M247 1v350q-48 0 -91.5 18t-70.5 43.5t-47.5 50.5t-29.5 43l-9 18v177h188v-177q0 -33 36.5 -52t72.5 -21l37 -2q6 0 16.5 0.5t36.5 4.5t45.5 11t36 22.5t16.5 36.5v177h178v-177q-2 -7 -7 -18.5t-23.5 -41.5t-42 -53t-65 -41.5t-89.5 -18.5v-350h-188zM305 832h177 l-50 -77h-175z" />
<glyph unicode="&#xe0;" horiz-adv-x="586" d="M500 375v-374h-125v184h-242v-184h-132v374q0 35 13.5 61t33 37.5t39 18t33.5 7.5l13 1h242q35 0 61 -13t37.5 -31t18 -36.5t7.5 -31.5zM133 273h242v102h-242v-102zM138 641h176l48 -81h-176z" />
<glyph unicode="&#xe1;" horiz-adv-x="585" d="M500 375v-374h-125v184h-242v-184h-132v374q0 35 13.5 61t33 37.5t39 18t33.5 7.5l13 1h242q35 0 61 -13t37.5 -31t18 -36.5t7.5 -31.5zM133 273h242v102h-242v-102zM186 637h177l-50 -77h-175z" />
<glyph unicode="&#xe2;" horiz-adv-x="586" d="M500 375v-374h-125v184h-242v-184h-132v374q0 35 13.5 61t33 37.5t39 18t33.5 7.5l13 1h242q35 0 61 -13t37.5 -31t18 -36.5t7.5 -31.5zM133 273h242v102h-242v-102zM252 638h172l49 -79h-176zM78 638h174l-51 -79h-172z" />
<glyph unicode="&#xe3;" horiz-adv-x="586" d="M500 375v-374h-125v184h-242v-184h-132v374q0 35 13.5 61t33 37.5t39 18t33.5 7.5l13 1h242q35 0 61 -13t37.5 -31t18 -36.5t7.5 -31.5zM133 273h242v102h-242v-102zM344 601q96 0 96 28q1 -6 1 -17q0 -26 -19.5 -39t-77.5 -13q-45 0 -75 6.5t-42 14t-29.5 14t-40.5 6.5 q-30 0 -54 -10.5t-31.5 -18.5t-9.5 -12v41q3 4 9 10.5t30.5 17t55.5 10.5q28 0 70.5 -19t116.5 -19z" />
<glyph unicode="&#xe4;" horiz-adv-x="586" d="M500 375v-374h-125v184h-242v-184h-132v374q0 35 13.5 61t33 37.5t39 18t33.5 7.5l13 1h242q35 0 61 -13t37.5 -31t18 -36.5t7.5 -31.5zM133 273h242v102h-242v-102zM292 642h83v-82h-83v82zM123 642h83v-82h-83v82z" />
<glyph unicode="&#xe5;" horiz-adv-x="586" d="M502 376v-375h-126v185h-243v-185h-132v375q0 35 13.5 61t33 38t39 18.5t33.5 7.5l13 1h243q35 0 61 -13t38 -31.5t18.5 -37t7.5 -31.5zM133 274h243v102h-243v-102zM297 616q0 20 -12.5 34.5t-31.5 14.5q-47 0 -47 -49q0 -19 11.5 -32.5t35.5 -13.5q18 0 31 14.5 t13 31.5zM313 616q0 -24 -18 -40t-42 -16q-29 0 -46 16t-17 40q0 25 17 42t46 17q24 0 42 -17.5t18 -41.5z" />
<glyph unicode="&#xe6;" horiz-adv-x="963" d="M500 375v-374h-125v184h-242v-184h-132v374q0 35 13.5 61t33 37.5t39 18t33.5 7.5l13 1h242q35 0 61 -13t37.5 -31t18 -36.5t7.5 -31.5zM133 273h242v102h-242v-102zM754 399h-253v-97h246v-89h-246v-106h253v23h122q0 -37 -13.5 -63.5t-30 -38.5t-39 -19t-30.5 -7.5 t-16 -0.5h-370v499h370q8 0 17.5 -1t31.5 -7.5t38 -18t29 -37t13 -60.5h-122v23z" />
<glyph unicode="&#xe7;" horiz-adv-x="600" d="M380 151h122v-27q0 -5 -0.5 -13.5t-7 -29.5t-17 -37.5t-34 -29.5t-55.5 -13h-263q-5 0 -13.5 0.5t-30 7.5t-37.5 18.5t-29.5 37t-13.5 59.5v254q-1 5 -1 14q0 16 4 31.5t15.5 34.5t38.5 31t67 12h255q5 0 13 -1t29 -7.5t37.5 -18t29.5 -37t13 -59.5v-24h-122v27h-247 v-254h247v24zM276 0v-85q3 0 9 -0.5t20.5 -5.5t26 -13t20.5 -26t9 -43q0 -22 -9 -38t-20 -23.5t-25.5 -11.5t-20.5 -4.5t-10 -0.5h-46v34h46q4 0 9 1t14 12t9 31q0 15 -8 28t-16 19l-8 6q-5 0 -12.5 1t-20.5 9.5t-13 24.5v85h46z" />
<glyph unicode="&#xe8;" horiz-adv-x="588" d="M138 641h176l48 -81h-176zM378 398h-253v-97h246v-88h-246v-106h253v23h121q0 -37 -13.5 -63.5t-29.5 -38.5t-38.5 -19t-31 -7.5t-15.5 -0.5h-370v498h370q8 0 17 -1t31 -7.5t38 -18t29 -37t13 -60.5h-121v23z" />
<glyph unicode="&#xe9;" horiz-adv-x="588" d="M188 637h177l-50 -77h-175zM378 398h-253v-97h246v-88h-246v-106h253v23h121q0 -37 -13.5 -63.5t-29.5 -38.5t-38.5 -19t-31 -7.5t-15.5 -0.5h-370v498h370q8 0 17 -1t31 -7.5t38 -18t29 -37t13 -60.5h-121v23z" />
<glyph unicode="&#xea;" horiz-adv-x="588" d="M251 638h172l49 -79h-176zM77 638h174l-51 -79h-172zM378 398h-253v-97h246v-88h-246v-106h253v23h121q0 -37 -13.5 -63.5t-29.5 -38.5t-38.5 -19t-31 -7.5t-15.5 -0.5h-370v498h370q8 0 17 -1t31 -7.5t38 -18t29 -37t13 -60.5h-121v23z" />
<glyph unicode="&#xeb;" horiz-adv-x="588" d="M295 642h83v-82h-83v82zM126 642h83v-82h-83v82zM378 398h-253v-97h246v-88h-246v-106h253v23h121q0 -37 -13.5 -63.5t-29.5 -38.5t-38.5 -19t-31 -7.5t-15.5 -0.5h-370v498h370q8 0 17 -1t31 -7.5t38 -18t29 -37t13 -60.5h-121v23z" />
<glyph unicode="&#xec;" horiz-adv-x="206" d="M122 498v-496h-123v376q0 5 0.5 13t7.5 28.5t18.5 36.5t37 29t59.5 13zM-53 641h176l48 -81h-176z" />
<glyph unicode="&#xed;" horiz-adv-x="206" d="M122 498v-496h-123v376q0 5 0.5 13t7.5 28.5t18.5 36.5t37 29t59.5 13zM-5 637h177l-50 -77h-175z" />
<glyph unicode="&#xee;" horiz-adv-x="262" d="M178 498v-496h-123v376q0 5 0.5 13t7.5 28.5t18.5 36.5t37 29t59.5 13zM116 638h172l49 -79h-176zM-58 638h174l-51 -79h-172z" />
<glyph unicode="&#xef;" horiz-adv-x="206" d="M122 498v-496h-123v376q0 5 0.5 13t7.5 28.5t18.5 36.5t37 29t59.5 13zM103 642h83v-82h-83v82zM-66 642h83v-82h-83v82z" />
<glyph unicode="&#xf1;" horiz-adv-x="597" d="M351 601q96 0 96 28q1 -6 1 -17q0 -26 -20 -39t-77 -13q-45 0 -75 6.5t-42 14t-29.5 14t-40.5 6.5q-30 0 -54 -10.5t-31.5 -18.5t-9.5 -12v41q3 4 9 10.5t30.5 17t55.5 10.5q28 0 70.5 -19t116.5 -19zM374 207v293h127v-501h-127q0 36 -25.5 87.5t-62.5 100t-73.5 91.5 t-62.5 70l-25 26v-375h-124v501h124q9 -7 23 -18.5t52.5 -46.5t70 -69t62 -78.5t41.5 -80.5z" />
<glyph unicode="&#xf2;" horiz-adv-x="595" d="M142 639h176l48 -81h-176zM500 373v-247q0 -5 -0.5 -13.5t-7.5 -30.5t-18.5 -38.5t-37 -30t-60.5 -13.5h-249q-5 0 -13.5 1t-30.5 7.5t-38.5 18.5t-30 38t-13.5 61v247q0 5 1 13.5t7.5 30.5t18.5 39t38 30.5t61 13.5h249q5 0 13.5 -1t30 -7.5t37.5 -18.5t29.5 -38 t13.5 -62zM127 126h249v247h-249v-247z" />
<glyph unicode="&#xf3;" horiz-adv-x="595" d="M186 637h177l-50 -77h-175zM500 373v-247q0 -5 -0.5 -13.5t-7.5 -30.5t-18.5 -38.5t-37 -30t-60.5 -13.5h-249q-5 0 -13.5 1t-30.5 7.5t-38.5 18.5t-30 38t-13.5 61v247q0 5 1 13.5t7.5 30.5t18.5 39t38 30.5t61 13.5h249q5 0 13.5 -1t30 -7.5t37.5 -18.5t29.5 -38 t13.5 -62zM127 126h249v247h-249v-247z" />
<glyph unicode="&#xf4;" horiz-adv-x="595" d="M252 638h172l49 -79h-176zM78 638h174l-51 -79h-172zM500 373v-247q0 -5 -0.5 -13.5t-7.5 -30.5t-18.5 -38.5t-37 -30t-60.5 -13.5h-249q-5 0 -13.5 1t-30.5 7.5t-38.5 18.5t-30 38t-13.5 61v247q0 5 1 13.5t7.5 30.5t18.5 39t38 30.5t61 13.5h249q5 0 13.5 -1t30 -7.5 t37.5 -18.5t29.5 -38t13.5 -62zM127 126h249v247h-249v-247z" />
<glyph unicode="&#xf5;" horiz-adv-x="595" d="M348 600q96 0 96 28q1 -6 1 -17q0 -26 -19.5 -39t-77.5 -13q-57 0 -88.5 10.5t-51 20.5t-47.5 10q-30 0 -54 -10.5t-31.5 -18.5t-9.5 -12v41q3 4 9 10.5t30.5 17t55.5 10.5q28 0 70.5 -19t116.5 -19zM500 373v-247q0 -5 -0.5 -13.5t-7.5 -30.5t-18.5 -38.5t-37 -30 t-60.5 -13.5h-249q-5 0 -13.5 1t-30.5 7.5t-38.5 18.5t-30 38t-13.5 61v247q0 5 1 13.5t7.5 30.5t18.5 39t38 30.5t61 13.5h249q5 0 13.5 -1t30 -7.5t37.5 -18.5t29.5 -38t13.5 -62zM127 126h249v247h-249v-247z" />
<glyph unicode="&#xf6;" horiz-adv-x="595" d="M293 642h83v-82h-83v82zM124 642h83v-82h-83v82zM500 373v-247q0 -5 -0.5 -13.5t-7.5 -30.5t-18.5 -38.5t-37 -30t-60.5 -13.5h-249q-5 0 -13.5 1t-30.5 7.5t-38.5 18.5t-30 38t-13.5 61v247q0 5 1 13.5t7.5 30.5t18.5 39t38 30.5t61 13.5h249q5 0 13.5 -1t30 -7.5 t37.5 -18.5t29.5 -38t13.5 -62zM127 126h249v247h-249v-247z" />
<glyph unicode="&#xf7;" horiz-adv-x="158" d="M-229 226h500v-53h-500v53zM72 72v-50q0 -24 -28 -24h-4l-40 2q-12 0 -19 5.5t-8 10.5l-1 6v50q0 18 7 23.5t23 5.5q5 0 19 -0.5t23 -0.5q12 0 19 -7t8 -14zM72 401v-50q0 -24 -28 -24h-4l-40 2q-12 0 -19 5.5t-8 11.5l-1 5v50q0 18 7 23.5t23 5.5q5 0 19 -0.5t23 -0.5 q12 0 19 -7t8 -14z" />
<glyph unicode="&#xf8;" horiz-adv-x="595" d="M347 571h95l-289 -651h-84z" />
<glyph unicode="&#xf9;" horiz-adv-x="582" d="M375 502h123v-368q0 -35 -12.5 -61.5t-31 -39.5t-36.5 -21t-30 -10l-13 -1h-252q-35 0 -60 13.5t-36.5 30.5t-18.5 39.5t-7.5 32t-0.5 17.5v368h123v-368h252v368zM138 641h176l48 -81h-176z" />
<glyph unicode="&#xfa;" horiz-adv-x="582" d="M375 502h123v-368q0 -35 -12.5 -61.5t-31 -39.5t-36.5 -21t-30 -10l-13 -1h-252q-35 0 -60 13.5t-36.5 30.5t-18.5 39.5t-7.5 32t-0.5 17.5v368h123v-368h252v368zM184 637h177l-50 -77h-175z" />
<glyph unicode="&#xfb;" horiz-adv-x="582" d="M375 502h123v-368q0 -35 -12.5 -61.5t-31 -39.5t-36.5 -21t-30 -10l-13 -1h-252q-35 0 -60 13.5t-36.5 30.5t-18.5 39.5t-7.5 32t-0.5 17.5v368h123v-368h252v368zM250 638h172l49 -79h-176zM76 638h174l-51 -79h-172z" />
<glyph unicode="&#xfc;" horiz-adv-x="582" d="M375 502h123v-368q0 -35 -12.5 -61.5t-31 -39.5t-36.5 -21t-30 -10l-13 -1h-252q-35 0 -60 13.5t-36.5 30.5t-18.5 39.5t-7.5 32t-0.5 17.5v368h123v-368h252v368zM293 642h83v-82h-83v82zM124 642h83v-82h-83v82z" />
<glyph unicode="&#xfd;" horiz-adv-x="560" d="M176 1v250q-34 0 -65 12.5t-50.5 30.5t-34 36.5t-20.5 31.5l-7 12v127h134v-127q0 -24 26.5 -37.5t52.5 -14.5l26 -2q4 0 11.5 0.5t26 3t32.5 8t25.5 16.5t11.5 26v127h127v-127q-2 -5 -5 -13.5t-16.5 -29.5t-30 -37t-46.5 -29.5t-64 -13.5v-250h-134zM191 636h177 l-50 -77h-175z" />
<glyph unicode="&#xff;" horiz-adv-x="560" d="M176 1v250q-34 0 -65 12.5t-50.5 30.5t-34 36.5t-20.5 31.5l-7 12v127h134v-127q0 -24 26.5 -37.5t52.5 -14.5l26 -2q4 0 11.5 0.5t26 3t32.5 8t25.5 16.5t11.5 26v127h127v-127q-2 -5 -5 -13.5t-16.5 -29.5t-30 -37t-46.5 -29.5t-64 -13.5v-250h-134zM278 643h83v-82 h-83v82zM109 643h83v-82h-83v82z" />
<glyph unicode="&#x102;" d="M369 779q141 0 141 16q0 2 -2 4t-5 3l-3 2h51q0 -2 -2 -5.5t-13 -12.5t-28.5 -15.5t-54 -12t-84.5 -5.5q-159 0 -184 44l-2 7h39q-5 -5 -5 -7q0 -18 152 -18zM700 525v-524h-175v258h-339v-258h-185v524q0 49 19 85t46.5 52.5t54.5 26t46 10.5l19 1h339q49 0 85 -18 t52.5 -44t26 -51.5t10.5 -43.5zM186 382h339v143h-339v-143z" />
<glyph unicode="&#x103;" horiz-adv-x="586" d="M247 577q96 0 96 11q0 1 -1.5 2t-3.5 2l-2 2h34q-1 -4 -5.5 -9.5t-35 -15t-82.5 -9.5q-110 0 -122 31l-1 3h26q-4 -2 -4 -5q0 -12 101 -12zM500 375v-374h-125v184h-242v-184h-132v374q0 35 13.5 61t33 37.5t39 18t33.5 7.5l13 1h242q35 0 61 -13t37.5 -31t18 -36.5 t7.5 -31.5zM133 273h242v102h-242v-102z" />
<glyph unicode="&#x106;" d="M529 210h171v-36q0 -4 -0.5 -10.5t-3.5 -24t-8.5 -34t-17.5 -36.5t-28 -34t-42.5 -24t-59.5 -10h-368q-4 0 -10 0.5t-24 4t-34.5 9t-36.5 18.5t-34 30.5t-24 46.5t-10 64v354q0 7 1 18.5t10.5 41t26 52.5t52 41.5t83.5 18.5h353q7 0 19 -1t42 -10.5t53 -25.5t42 -51.5 t19 -83.5v-32h-171v36h-344v-355h344v33zM286 829h177l-50 -77h-175z" />
<glyph unicode="&#x107;" horiz-adv-x="600" d="M189 637h177l-50 -77h-175zM378 150h122v-26q0 -5 -0.5 -13.5t-7 -29.5t-17 -37t-34 -29.5t-55.5 -13.5h-263q-5 0 -13.5 0.5t-30 7.5t-37.5 18.5t-29.5 37t-13.5 59.5v253q0 5 1 13.5t7.5 29.5t18.5 37t37.5 29.5t59.5 13.5h252q5 0 13.5 -0.5t30 -7.5t38 -18.5t30 -37 t13.5 -59.5v-23h-122v26h-246v-254h246v24z" />
<glyph unicode="&#x10c;" d="M529 210h171v-36q0 -4 -0.5 -10.5t-3.5 -24t-8.5 -34t-17.5 -36.5t-28 -34t-42.5 -24t-59.5 -10h-368q-4 0 -10 0.5t-24 4t-34.5 9t-36.5 18.5t-34 30.5t-24 46.5t-10 64v354q0 7 1 18.5t10.5 41t26 52.5t52 41.5t83.5 18.5h353q7 0 19 -1t42 -10.5t53 -25.5t42 -51.5 t19 -83.5v-32h-171v36h-344v-355h344v33zM390 845h182l-55 -93h-334l-48 93h183l31 -62z" />
<glyph unicode="&#x10d;" horiz-adv-x="600" d="M380 151h122v-27q0 -5 -0.5 -13.5t-7 -29.5t-17 -37.5t-34 -29.5t-55.5 -13h-263q-5 0 -13.5 0.5t-30 7.5t-37.5 18.5t-29.5 37t-13.5 59.5v254q-1 5 -1 14q0 16 4 31.5t15.5 34.5t38.5 31t67 12h255q5 0 13 -1t29 -7.5t37.5 -18t29.5 -37t13 -59.5v-24h-122v27h-247 v-254h247v24zM302 654h182l-55 -93h-334l-48 93h183l31 -62z" />
<glyph unicode="&#x110;" horiz-adv-x="874" d="M-1 300v130h91v272h532q47 0 82 -18t51 -44t25 -51.5t10 -43.5l1 -18v-356q0 -48 -17.5 -83t-42.5 -51t-49.5 -25t-41.5 -10l-18 -1h-532v299h-91zM641 234v235q0 4 -0.5 11t-6 24t-14.5 30t-29 24t-47 11h-304v-139h123v-130h-123v-163h304q4 0 10.5 0.5t23 6t29.5 14.5 t23.5 29t10.5 47z" />
<glyph unicode="&#x111;" horiz-adv-x="648" d="M-1 214v92h65v194h379q34 0 58.5 -13t36 -31t18 -36.5t6.5 -31.5l1 -13v-253q0 -34 -12.5 -59t-30 -36t-35 -18t-29.5 -7l-13 -1h-379v213h-65zM456 167v167q0 3 -0.5 7.5t-4 17t-10 22t-21 17t-33.5 7.5h-216v-99h87v-92h-87v-116h216q3 0 7.5 0.5t16.5 4t21 10t16.5 21 t7.5 33.5z" />
<glyph unicode="&#x143;" d="M524 289v411h177v-701h-177q0 50 -36 122t-87 139.5t-102.5 128t-87.5 97.5l-36 37v-524h-174v701h174q12 -9 32.5 -25.5t74 -66t97.5 -97t87 -109.5t58 -113zM286 829h177l-50 -77h-175z" />
<glyph unicode="&#x144;" horiz-adv-x="597" d="M191 637h177l-50 -77h-175zM374 206v293h126v-500h-126q0 36 -25.5 87.5t-62.5 99.5t-73.5 91.5t-62.5 69.5l-25 26v-374h-124v500h124q9 -7 23 -18.5t52.5 -46.5t70 -69t62 -78.5t41.5 -80.5z" />
<glyph unicode="&#x150;" d="M700 522v-345q0 -7 -1 -19t-10.5 -42.5t-25.5 -54t-52 -42.5t-84 -19h-349q-7 0 -19 1t-42.5 10.5t-54 26.5t-42.5 53t-19 86v345q0 7 1 19t10.5 43t26.5 54.5t53 42.5t86 19h349q4 0 10 -0.5t24 -4t34.5 -9.5t36.5 -19.5t34 -31.5t24 -47.5t10 -65.5zM178 177h349v345 h-349v-345zM171 829h177l-50 -77h-175zM417 829h177l-50 -77h-175z" />
<glyph unicode="&#x151;" horiz-adv-x="593" d="M68 636h177l-50 -77h-175zM312 636h177l-50 -77h-175zM500 373v-247q0 -5 -0.5 -13.5t-7.5 -30.5t-18.5 -38.5t-37 -30t-60.5 -13.5h-249q-5 0 -13.5 1t-30.5 7.5t-38.5 18.5t-30 38t-13.5 61v247q0 5 1 13.5t7.5 30.5t18.5 39t38 30.5t61 13.5h249q5 0 13.5 -1t30 -7.5 t37.5 -18.5t29.5 -38t13.5 -62zM127 126h249v247h-249v-247z" />
<glyph unicode="&#x152;" horiz-adv-x="1410" d="M700 521v-345q0 -7 -1 -19t-10.5 -42.5t-25.5 -54t-52 -42.5t-84 -19h-349q-7 0 -19 1t-42.5 10.5t-54 26.5t-42.5 53t-19 86v345q0 7 1 19t10.5 43t26.5 54.5t53 42.5t86 19h349q4 0 10 -0.5t24 -4t34.5 -9.5t36.5 -19.5t34 -31.5t24 -47.5t10 -65.5zM178 176h349v345 h-349v-345zM1102 557h-354v-135h344v-124h-344v-148h354v32h170q0 -38 -10 -68t-24.5 -48.5t-35 -32t-36.5 -19.5t-36 -9.5t-26 -3.5h-12h-518v698h518q11 0 24 -1t43.5 -10.5t53 -26t41 -52t18.5 -84.5h-170v32z" />
<glyph unicode="&#x153;" horiz-adv-x="1038" d="M500 373v-247q0 -5 -0.5 -13.5t-7.5 -30.5t-18.5 -38.5t-37 -30t-60.5 -13.5h-249q-5 0 -13.5 1t-30.5 7.5t-38.5 18.5t-30 38t-13.5 61v247q0 5 1 13.5t7.5 30.5t18.5 39t38 30.5t61 13.5h249q5 0 13.5 -1t30 -7.5t37.5 -18.5t29.5 -38t13.5 -62zM127 126h249v247h-249 v-247zM752 398h-253v-97h246v-88h-246v-106h253v23h121q0 -37 -13.5 -63.5t-29.5 -38.5t-38.5 -19t-31 -7.5t-15.5 -0.5h-370v498h370q8 0 17 -1t31 -7.5t38 -18t29 -37t13 -60.5h-121v23z" />
<glyph unicode="&#x15a;" d="M231 549q20 -6 65.5 -26.5t116 -60.5t131.5 -85.5t105.5 -106.5t44.5 -118q0 -6 -1 -16.5t-10.5 -36.5t-25.5 -45.5t-52 -36t-84 -16.5h-521v182h171v-33q72 -31 173 -31q32 0 73 5t81.5 21t40.5 40q0 32 -55.5 82.5t-134.5 100t-158.5 94t-134.5 72.5l-56 28q0 6 1 15 t10 32.5t24.5 41.5t50 33t80.5 15h528v-183h-173v33q-50 30 -136 30q-74 0 -154 -30zM286 829h177l-50 -77h-175z" />
<glyph unicode="&#x15b;" horiz-adv-x="582" d="M188 635h177l-50 -77h-175zM165 392q20 -6 66.5 -29t109.5 -60.5t109 -90.5t46 -103q0 -4 -0.5 -11.5t-7.5 -26t-18.5 -33t-37 -26t-60.5 -11.5h-372v130h122v-24q52 -22 124 -22q41 0 90 11.5t49 35.5q0 36 -96.5 103.5t-192.5 116.5l-96 50q0 4 0.5 10.5t7 23.5t18 30 t36 23.5t57.5 10.5h377v-131h-124v23q-35 22 -97 22q-52 0 -110 -22z" />
<glyph unicode="&#x160;" d="M231 549q20 -6 65.5 -26.5t116 -60.5t131.5 -85.5t105.5 -106.5t44.5 -118q0 -6 -1 -16.5t-10.5 -36.5t-25.5 -45.5t-52 -36t-84 -16.5h-521v182h171v-33q72 -31 173 -31q32 0 73 5t81.5 21t40.5 40q0 32 -55.5 82.5t-134.5 100t-158.5 94t-134.5 72.5l-56 28q0 6 1 15 t10 32.5t24.5 41.5t50 33t80.5 15h528v-183h-173v33q-50 30 -136 30q-74 0 -154 -30zM390 845h182l-55 -93h-334l-48 93h183l31 -62z" />
<glyph unicode="&#x161;" horiz-adv-x="579" d="M165 392q20 -6 66.5 -29t109.5 -60.5t109 -90.5t46 -103q0 -4 -0.5 -11.5t-7.5 -26t-18.5 -33t-37 -26t-60.5 -11.5h-372v130h122v-24q52 -22 124 -22q41 0 90 11.5t49 35.5q0 36 -96.5 103.5t-192.5 116.5l-96 50q0 4 0.5 10.5t7 23.5t18 30t36 23.5t57.5 10.5h377v-131 h-124v23q-35 22 -97 22q-52 0 -110 -22zM285 652h182l-55 -93h-334l-48 93h183l31 -62z" />
<glyph unicode="&#x170;" d="M523 699h171v-513q0 -49 -17.5 -86t-43 -55t-50.5 -29t-43 -13l-17 -2h-352q-40 0 -71.5 12.5t-49 33.5t-29 41.5t-15.5 45t-5 34.5t-1 18v513h171v-513h352v513zM160 829h177l-50 -77h-175zM404 829h177l-50 -77h-175z" />
<glyph unicode="&#x171;" horiz-adv-x="582" d="M375 502h123v-368q0 -35 -12.5 -61.5t-31 -39.5t-36.5 -21t-30 -10l-13 -1h-252q-35 0 -60 13.5t-36.5 30.5t-18.5 39.5t-7.5 32t-0.5 17.5v368h123v-368h252v368zM61 637h177l-50 -77h-175zM306 637h177l-50 -77h-175z" />
<glyph unicode="&#x178;" d="M247 1v350q-48 0 -91.5 18t-70.5 43.5t-47.5 50.5t-29.5 43l-9 18v177h188v-177q0 -33 36.5 -52t72.5 -21l37 -2q6 0 16.5 0.5t36.5 4.5t45.5 11t36 22.5t16.5 36.5v177h178v-177q-2 -7 -7 -18.5t-23.5 -41.5t-42 -53t-65 -41.5t-89.5 -18.5v-350h-188zM373 833h83v-82 h-83v82zM204 833h83v-82h-83v82z" />
<glyph unicode="&#x179;" d="M0 701h702v-176l-526 -374h351v32h175v-184h-702v186l532 363h-362v-32h-170v185zM286 829h177l-50 -77h-175z" />
<glyph unicode="&#x17a;" horiz-adv-x="588" d="M188 637h177l-50 -77h-175zM0 499h500v-125l-375 -266h250v22h125v-131h-500v133l379 258h-258v-22h-121v131z" />
<glyph unicode="&#x17b;" d="M335 833h83v-82h-83v82zM0 701h702v-176l-526 -374h351v32h175v-184h-702v186l532 363h-362v-32h-170v185z" />
<glyph unicode="&#x17c;" horiz-adv-x="588" d="M211 640h83v-82h-83v82zM0 500h501v-125l-375 -267h250v23h125v-132h-501v133l380 259h-259v-23h-121v132z" />
<glyph unicode="&#x17d;" horiz-adv-x="834" d="M375 843h192l-55 -91h-335l-57 91h185l39 -62zM0 701h702v-176l-526 -374h351v32h175v-184h-702v186l532 363h-362v-32h-170v185z" />
<glyph unicode="&#x17e;" horiz-adv-x="589" d="M0 499h500v-125l-375 -266h250v22h125v-131h-500v133l379 258h-258v-22h-121v131zM290 653h182l-55 -93h-334l-48 93h183l31 -62z" />
<glyph unicode="&#x2c6;" d="M354 829h172l49 -79h-176zM180 829h174l-51 -79h-172z" />
<glyph unicode="&#x2c7;" horiz-adv-x="800" d="M390 845h182l-55 -93h-334l-48 93h183l31 -62z" />
<glyph unicode="&#x2dc;" d="M468 823q96 0 96 28q1 -6 1 -17q0 -26 -19.5 -39t-77.5 -13q-45 0 -75 6.5t-42 14t-29.5 14t-40.5 6.5q-30 0 -54 -10.5t-31.5 -18.5t-9.5 -12v41q3 4 9 10.5t30.5 17t55.5 10.5q28 0 70.5 -19t116.5 -19z" />
<glyph unicode="&#x2013;" horiz-adv-x="587" d="M0 327h500v-53h-500v53z" />
<glyph unicode="&#x2014;" horiz-adv-x="1089" d="M0 327h1002v-53h-1002v53z" />
<glyph unicode="&#x2018;" horiz-adv-x="163" d="M-24 614v75q0 59 96 59h4v-17q-48 0 -48 -40q0 -2 24 -2q11 0 17 -7t7 -14v-7v-47q0 -27 -30 -27q-6 0 -21 1t-24 1q-11 0 -17.5 6.5t-7.5 12.5v6z" />
<glyph unicode="&#x2019;" horiz-adv-x="162" d="M76 724v-75q0 -59 -94 -59h-6v17q22 0 33 8t12.5 14.5t1.5 17.5q0 2 -23 2q-11 0 -17 7t-7 14v7v47q0 26 31 26q5 0 20 -0.5t24 -0.5q11 0 17.5 -6.5t7.5 -12.5v-6z" />
<glyph unicode="&#x201a;" horiz-adv-x="161" d="M76 75v-75q0 -59 -94 -59h-6v17q22 0 33 8t12.5 14.5t1.5 17.5q0 2 -23 2q-11 0 -17 7t-7 14v7v47q0 26 31 26q5 0 20 -0.5t24 -0.5q11 0 17.5 -6t7.5 -12v-7z" />
<glyph unicode="&#x201c;" horiz-adv-x="311" d="M124 613v75q0 59 96 59h4v-17q-48 0 -48 -40q0 -2 24 -2q11 0 17 -7t7 -14v-7v-47q0 -27 -30 -27q-6 0 -21 1t-24 1q-11 0 -17.5 6t-7.5 12v7zM-24 614v75q0 59 96 59h4v-17q-48 0 -48 -40q0 -2 24 -2q11 0 17 -7t7 -14v-7v-47q0 -27 -30 -27q-6 0 -21 1t-24 1 q-11 0 -17.5 6.5t-7.5 12.5v6z" />
<glyph unicode="&#x201d;" horiz-adv-x="310" d="M76 730v-75q0 -59 -94 -59h-6v17q22 0 33 8t12.5 14.5t1.5 17.5q0 2 -23 2q-11 0 -17 7t-7 14v7v47q0 26 31 26q5 0 20 -0.5t24 -0.5q11 0 17.5 -6.5t7.5 -12.5v-6zM224 730v-75q0 -59 -94 -59h-6v17q22 0 33 8t12.5 14.5t1.5 17.5q0 2 -23 2q-11 0 -17 7t-7 14v7v47 q0 26 31 26q5 0 20 -0.5t24 -0.5q11 0 17.5 -6.5t7.5 -12.5v-6z" />
<glyph unicode="&#x201e;" horiz-adv-x="309" d="M76 76v-75q0 -59 -94 -59h-6v17q22 0 33 8t12.5 14.5t1.5 17.5q0 2 -23 2q-11 0 -17 7t-7 14v7v47q0 26 31 26q5 0 20 -0.5t24 -0.5q11 0 17.5 -6.5t7.5 -12.5v-6zM224 76v-75q0 -59 -94 -59h-6v17q22 0 33 8t12.5 14.5t1.5 17.5q0 2 -23 2q-11 0 -17 7t-7 14v7v47 q0 26 31 26q5 0 20 -0.5t24 -0.5q11 0 17.5 -6.5t7.5 -12.5v-6z" />
<glyph unicode="&#x2022;" horiz-adv-x="269" d="M0 343q0 40 28.5 68t68.5 28t68 -28t28 -68t-28 -68.5t-68 -28.5q-41 0 -69 28t-28 69z" />
<glyph unicode="&#x2026;" horiz-adv-x="474" d="M72 72v-50q0 -24 -28 -24h-4l-40 2q-12 0 -19 5.5t-8 10.5l-1 6v50q0 18 7 23.5t23 5.5q5 0 19 -0.5t23 -0.5q12 0 19 -7t8 -14zM230 72v-50q0 -24 -28 -24h-4l-40 2q-12 0 -19 5.5t-8 10.5l-1 6v50q0 18 7 23.5t23 5.5q5 0 19 -0.5t23 -0.5q12 0 19 -7t8 -14zM388 72 v-50q0 -24 -28 -24h-4l-40 2q-12 0 -19 5.5t-8 10.5l-1 6v50q0 18 7 23.5t23 5.5q5 0 19 -0.5t23 -0.5q12 0 19 -7t8 -14z" />
<glyph unicode="&#x2030;" horiz-adv-x="1115" d="M446 747h94l-287 -750h-84zM305 621v-148q0 -3 -0.5 -8t-4.5 -18t-11 -23t-22 -18t-36 -8h-155q-3 0 -8 0.5t-18 4.5t-23 11t-18 22.5t-8 36.5v148q0 3 0.5 8t4.5 18.5t11 23.5t22.5 18t36.5 8h155q3 0 8 -0.5t18 -4.5t22.5 -11t17.5 -23t8 -37zM76 473h155v148h-155 v-148zM704 224v-148q0 -3 -0.5 -8t-4.5 -18t-11 -23t-22 -18t-36 -8h-155q-3 0 -8 0.5t-18 4.5t-23 11t-18 22.5t-8 36.5v148q0 3 0.5 8t4.5 18.5t11 23.5t22.5 18t36.5 8h155q3 0 8 -0.5t18 -4.5t22.5 -11t17.5 -23t8 -37zM475 76h155v148h-155v-148zM1028 224v-148 q0 -3 -0.5 -8t-4.5 -18t-11 -23t-22 -18t-36 -8h-155q-3 0 -8 0.5t-18 4.5t-23 11t-18 22.5t-8 36.5v148q0 3 0.5 8t4.5 18.5t11 23.5t22.5 18t36.5 8h155q3 0 8 -0.5t18 -4.5t22.5 -11t17.5 -23t8 -37zM799 76h155v148h-155v-148z" />
<glyph unicode="&#x2039;" horiz-adv-x="263" d="M175 499l-140 -255l140 -244h-28l-147 244l140 255h35z" />
<glyph unicode="&#x203a;" horiz-adv-x="266" d="M-1 501h36l142 -251l-142 -249h-36l142 249z" />
<glyph unicode="&#x2070;" horiz-adv-x="415" d="M328 627v-259q0 -30 -17 -46.5t-33 -18.5l-17 -2h-140q-31 0 -48.5 14.5t-20.5 26t-3 23.5v262q0 3 0.5 8t4 17t10 21.5t20 17.5t32.5 8h147q7 0 15.5 -2t21 -8t20.5 -22t8 -40zM121 368h140v259h-140v-259z" />
<glyph unicode="&#x2122;" horiz-adv-x="844" d="M384 749h90l92 -223l85 223h91v-325h-53v268l-107 -248h-34l-111 248v-268h-53v325zM39 749h268v-48h-105v-277h-59v277h-104v48z" />
<glyph unicode="&#x231a;" horiz-adv-x="1321" d="M671 1041q296 -3 448 -213.5t73 -506.5q-53 -195 -193.5 -361.5t-332.5 -263.5t-387 -97q-191 0 -328 93l-56 -61l49 66q-139 96 -192.5 261.5t-0.5 362.5q51 193 191 359t330.5 262.5t385.5 98.5l21 56zM627 790l-48 -288q53 -20 76.5 -69.5t7.5 -111.5 q-23 -80 -94 -136t-150 -56q-17 0 -46 6q-10 3 -13 5l-217 -237q88 -53 203 -53q193 0 368.5 138t226.5 333q50 185 -40.5 320.5t-273.5 148.5zM459 502l106 288q-187 -13 -351 -148.5t-214 -320.5q-30 -127 -0.5 -230t112.5 -167l191 258l-10 14q-32 54 -13 125 q16 62 65.5 111.5t113.5 69.5zM509 465q-59 0 -112 -42.5t-70 -101.5q-16 -59 15 -101.5t90 -42.5q61 0 114 42.5t69 101.5q17 59 -15 101.5t-91 42.5zM-160 321q-46 -170 -0.5 -314t163.5 -229l69 92q-96 72 -132 189.5t1 261.5q58 211 246 364.5t400 164.5l39 101 q-258 -6 -487.5 -190t-298.5 -440zM303 -311q171 0 338 84.5t291 230.5t171 317q68 256 -63 440t-385 190l-16 -101q208 -11 313.5 -164.5t49.5 -364.5q-59 -219 -256 -374.5t-416 -155.5q-133 0 -232 61l-79 -85q122 -78 284 -78zM448 236q-35 0 -52.5 25t-8.5 60 q8 35 39.5 60t66.5 25t53.5 -25t9 -60t-41 -60t-66.5 -25z" />
<glyph unicode="&#x2397;" horiz-adv-x="1584" d="M1485 876h101v-100v-151v-99v-151v-100v-151v-99v-156v-99h-101h-278h-100v28h-59v-23v-99h-99h-834h-41l-29 28l-223 223l-28 29v41v502v387v99h99h1056h99v-99v-41h59v31h100h278zM1485 621v155h-278v-30h-258v30v110h-1056v-387v-502l222 -222h834v94v28h258v-28h278 v156h-278v-31h-258v31v95v28h258v-28h278v155h-278v-31h-258v31v95v28h258v-28h278v156h-278v-31h-258v31v95v29h258v-29h278zM259 629v-78h124v-472h124v587z" />
<glyph unicode="&#x2398;" horiz-adv-x="1584" d="M623 183v87l108 -31v-46q0 -67 -28 -91q-31 -24 -105 -24h-490v53q0 37 11 52q15 27 61 55l404 249v75h-332v-120l-115 29v76q0 69 28 91q28 24 105 24h300q74 0 105 -24q28 -24 28 -91v-36q0 -48 -17 -73q-16 -18 -59 -46l-343 -209h339zM1487 876h99v-101v-150v-100 v-150v-101v-151v-100v-155v-99h-99h-280h-100v28h-57v-23v-99h-101h-834h-41l-29 29l-222 221l-29 30v42v501v388v99h99h1056h101v-99v-41h57v31h100h280zM1487 621v154h-280v-31h-258v31v111h-1056v-388v-501l222 -223h834v94v29h258v-29h280v155h-280v-30h-258v30v97v28 h258v-28h280v154h-280v-31h-258v31v97v28h258v-28h280v154h-280v-31h-258v31v96v28h258v-28h280z" />
<glyph unicode="&#x2399;" horiz-adv-x="1167" d="M703 129h-239v81h158v609h-609v-609h220v-81h-301v772h771v-772zM1082 -217h-771v773h238v-81h-157v-610h609v610h-220v81h301v-773z" />
<glyph unicode="&#x23ce;" horiz-adv-x="894" d="M524 14v277h-599v599h141v-456h458v278l348 -350z" />
<glyph unicode="&#x23cf;" horiz-adv-x="1223" d="M1064 869q32 0 53.5 -22.5t21.5 -54.5v-102q0 -27 -16.5 -46.5t-42.5 -26.5q3 -11 3 -17l-36 -754q-3 -31 -24.5 -52t-52.5 -21h-801q-31 0 -52.5 21t-24.5 52l-6 131h-226v58h224l-5 60h-334v57h332l-9 180h-208v57h205l-9 211q0 6 2 17q-26 7 -43 26.5t-17 46.5v102 q0 32 22.5 54.5t54.5 22.5h147v4q0 31 22.5 53.5t54.5 22.5h541q32 0 54.5 -22.5t22.5 -53.5v-4h147zM970 -150l36 755h-873l9 -216h450v-57h-447l9 -180h499v-57h-497l3 -60h433v-58h-430l7 -127h801zM1064 690v102h-224v81h-541v-81h-224v-102h989z" />
<glyph unicode="&#x2776;" horiz-adv-x="1468" d="M1378 416q0 -191 -135 -325.5t-326 -134.5q-189 0 -324 134.5t-135 325.5q0 119 62 230t172.5 170.5t224.5 59.5q116 0 227 -59.5t172.5 -170t61.5 -230.5zM736 130h370v86h-130v476h-97l-154 -28v-91l141 25v-382h-130v-86z" />
<glyph unicode="&#x2777;" horiz-adv-x="1468" d="M1378 416q0 -191 -135 -325.5t-326 -134.5q-189 0 -324 134.5t-135 325.5q0 119 62 230t172.5 170.5t224.5 59.5q116 0 227 -59.5t172.5 -170t61.5 -230.5zM1055 396q37 42 51.5 73.5t14.5 66.5q0 75 -59 120.5t-157 45.5q-37 0 -80.5 -9.5t-101.5 -31.5v-102 q69 35 108.5 46t75.5 11q46 0 74.5 -23t28.5 -61q0 -24 -14 -49.5t-51 -63.5q-20 -20 -98 -93l-128 -118v-78h405v86h-261l128 119q54 50 64 61z" />
<glyph unicode="&#x2778;" horiz-adv-x="1468" d="M1378 416q0 -191 -135 -325.5t-326 -134.5q-189 0 -324 134.5t-135 325.5q0 119 62 230t172.5 170.5t224.5 59.5q116 0 227 -59.5t172.5 -170t61.5 -230.5zM1145 550q0 69 -58 110.5t-155 41.5q-36 0 -77 -6t-98 -21v-90q64 19 100.5 25t67.5 6q55 0 82.5 -18.5 t27.5 -54.5q0 -35 -26.5 -53t-80.5 -18h-87v-84h84q60 0 92 -23.5t32 -66.5q0 -45 -34.5 -69t-104.5 -24q-41 0 -78.5 8.5t-92.5 37.5v-101q53 -16 94 -23t79 -7q117 0 182 47t65 131q0 56 -35.5 95t-43.5 40q2 0 33.5 34.5t31.5 82.5z" />
<glyph unicode="&#x2779;" horiz-adv-x="1468" d="M1378 416q0 -191 -135 -325.5t-326 -134.5q-189 0 -324 134.5t-135 325.5q0 119 62 230t172.5 170.5t224.5 59.5q116 0 227 -59.5t172.5 -170t61.5 -230.5zM930 342h-161l161 229v-229zM663 342v-85h267v-127h109v127h85v85h-85v350h-123z" />
<glyph unicode="&#x277a;" horiz-adv-x="1468" d="M1378 416q0 -191 -135 -325.5t-326 -134.5q-189 0 -324 134.5t-135 325.5q0 119 62 230t172.5 170.5t224.5 59.5q116 0 227 -59.5t172.5 -170t61.5 -230.5zM753 390q53 22 83.5 28t60.5 6q62 0 97.5 -29t35.5 -80t-35.5 -80.5t-97.5 -29.5q-41 0 -76.5 8.5t-92.5 36.5 v-103q53 -15 92.5 -21t78.5 -6q114 0 178 51.5t64 143.5q0 89 -62.5 142t-167.5 53q-19 0 -38 -3t-17 -3v103h241v85h-344v-302z" />
<glyph unicode="&#x277b;" horiz-adv-x="1468" d="M1378 416q0 -191 -135 -325.5t-326 -134.5q-189 0 -324 134.5t-135 325.5q0 119 62 230t172.5 170.5t224.5 59.5q116 0 227 -59.5t172.5 -170t61.5 -230.5zM1014 315q0 -54 -27.5 -83.5t-74.5 -29.5t-74.5 29.5t-27.5 83.5t27.5 83.5t74.5 29.5t74.5 -29.5t27.5 -83.5z M946 702q-120 0 -190 -80.5t-70 -210.5q0 -139 57.5 -215t168.5 -76q96 0 154 54t58 141q0 88 -55.5 141.5t-151.5 53.5q-47 0 -85.5 -18.5t-32.5 -11.5q3 48 41 92t109 44q28 0 57.5 -6.5t79.5 -27.5v94q-44 14 -76 20t-64 6z" />
<glyph unicode="&#x277c;" horiz-adv-x="1468" d="M1378 416q0 -191 -135 -325.5t-326 -134.5q-189 0 -324 134.5t-135 325.5q0 119 62 230t172.5 170.5t224.5 59.5q116 0 227 -59.5t172.5 -170t61.5 -230.5zM726 607h278l-202 -477h115l219 517v45h-410v-85z" />
<glyph unicode="&#x277d;" horiz-adv-x="1468" d="M1378 416q0 -191 -135 -325.5t-326 -134.5q-189 0 -324 134.5t-135 325.5q0 119 62 230t172.5 170.5t224.5 59.5q116 0 227 -59.5t172.5 -170t61.5 -230.5zM1028 294q0 -44 -28.5 -68t-79.5 -24q-50 0 -78.5 24t-28.5 68q0 43 28.5 67t78.5 24q51 0 79.5 -24t28.5 -67z M703 294q0 -83 57 -128.5t160 -45.5q104 0 161 45.5t57 128.5q0 55 -35.5 94t-44.5 41q3 1 34.5 36.5t31.5 84.5q0 70 -54.5 111t-149.5 41q-94 0 -149 -41t-55 -111q0 -49 32 -84.5t34 -36.5q-9 -2 -44 -41t-35 -94zM920 620q45 0 70 -20t25 -57q0 -36 -25 -56t-70 -20 q-46 0 -70 20t-24 56q0 37 24 57t70 20z" />
<glyph unicode="&#x277e;" horiz-adv-x="1468" d="M1378 416q0 -191 -135 -325.5t-326 -134.5q-189 0 -324 134.5t-135 325.5q0 119 62 230t172.5 170.5t224.5 59.5q116 0 227 -59.5t172.5 -170t61.5 -230.5zM889 120q120 0 189.5 80t69.5 211q0 139 -57 215t-168 76q-96 0 -154.5 -54t-58.5 -141q0 -89 56 -141.5 t151 -52.5q48 0 86.5 18t32.5 10q-3 -47 -41.5 -91.5t-109.5 -44.5q-28 0 -57 6.5t-80 28.5v-94q45 -14 77 -20t64 -6zM821 507q0 54 27.5 83.5t74.5 29.5t74 -29.5t27 -83.5q0 -55 -27 -84.5t-74 -29.5t-74.5 29.5t-27.5 84.5z" />
<glyph unicode="&#x277f;" horiz-adv-x="1468" d="M1378 416q0 -191 -135 -325.5t-326 -134.5q-189 0 -324 134.5t-135 325.5q0 119 62 230t172.5 170.5t224.5 59.5q116 0 227 -59.5t172.5 -170t61.5 -230.5zM631 177h270v76h-95v429h-70l-113 -25v-83l103 24v-345h-95v-76zM1174 429q0 -98 -21 -143t-59 -45t-58.5 45 t-20.5 143q0 97 20.5 142.5t58.5 45.5t59 -45.5t21 -142.5zM934 429q0 -125 41 -193.5t119 -68.5t119 68.5t41 193.5t-41 193.5t-119 68.5t-119 -68.5t-41 -193.5z" />
<glyph unicode="&#x2780;" horiz-adv-x="1372" d="M858 866q-92 0 -173 -34q-79 -32 -144 -99q-67 -66 -99.5 -145.5t-32.5 -173.5q0 -91 32.5 -170.5t99.5 -145.5q65 -67 144 -99q81 -34 173 -34t173 34q79 32 144 99q67 66 99.5 145.5t32.5 170.5q0 94 -32.5 173.5t-99.5 145.5q-65 67 -144 99q-81 34 -173 34zM669 139 h158v547l-172 -34v88l172 35h96v-636h159v-81h-413v81zM858 926q104 0 196 -38q90 -37 164 -112q76 -76 112.5 -166t36.5 -196q0 -103 -36.5 -193t-112.5 -166q-74 -75 -164 -112q-92 -38 -196 -38t-196 38q-90 37 -164 112q-76 76 -112.5 166t-36.5 193q0 106 36.5 196 t112.5 166q74 75 164 112q92 38 196 38z" />
<glyph unicode="&#x2781;" horiz-adv-x="1372" d="M858 866q-92 0 -173 -34q-79 -32 -144 -99q-67 -66 -99.5 -145.5t-32.5 -173.5q0 -91 32.5 -170.5t99.5 -145.5q65 -67 144 -99q81 -34 173 -34t173 34q79 32 144 99q67 66 99.5 145.5t32.5 170.5q0 94 -32.5 173.5t-99.5 145.5q-65 67 -144 99q-81 34 -173 34zM748 141 h339v-82h-455v82l150 153q95 97 120 124q47 53 65 89t18 71q0 57 -40 93t-104 36q-48 0 -97.5 -15.5t-106.5 -47.5v98q58 23 109 35t93 12q111 0 177.5 -56t66.5 -149q0 -43 -16.5 -83t-60.5 -94q-12 -13 -76 -80zM858 926q104 0 196 -38q90 -37 164 -112q76 -76 112.5 -166 t36.5 -196q0 -103 -36.5 -193t-112.5 -166q-74 -75 -164 -112q-92 -38 -196 -38t-196 38q-90 37 -164 112q-76 76 -112.5 166t-36.5 193q0 106 36.5 196t112.5 166q74 75 164 112q92 38 196 38z" />
<glyph unicode="&#x2782;" horiz-adv-x="1372" d="M858 866q-92 0 -173 -34q-79 -32 -144 -99q-67 -66 -99.5 -145.5t-32.5 -173.5q0 -91 32.5 -170.5t99.5 -145.5q65 -67 144 -99q81 -34 173 -34t173 34q79 32 144 99q67 66 99.5 145.5t32.5 170.5q0 94 -32.5 173.5t-99.5 145.5q-65 67 -144 99q-81 34 -173 34zM961 444 q70 -15 109 -62t39 -116q0 -106 -72.5 -164t-207.5 -58q-45 0 -93 9t-99 26v94q41 -24 89 -36t100 -12q91 0 139 36t48 105q0 63 -44.5 99t-123.5 36h-84v80h87q72 0 110 28.5t38 82.5q0 55 -39 84.5t-112 29.5q-40 0 -85.5 -9t-100.5 -27v87q49 13 100.5 21.5t93.5 8.5 q112 0 176 -50t64 -135q0 -60 -34.5 -101t-97.5 -57zM858 926q104 0 196 -38q90 -37 164 -112q76 -76 112.5 -166t36.5 -196q0 -103 -36.5 -193t-112.5 -166q-74 -75 -164 -112q-92 -38 -196 -38t-196 38q-90 37 -164 112q-76 76 -112.5 166t-36.5 193q0 106 36.5 196 t112.5 166q74 75 164 112q92 38 196 38z" />
<glyph unicode="&#x2783;" horiz-adv-x="1372" d="M858 866q-92 0 -173 -34q-79 -32 -144 -99q-67 -66 -99.5 -145.5t-32.5 -173.5q0 -91 32.5 -170.5t99.5 -145.5q65 -67 144 -99q81 -34 173 -34t173 34q79 32 144 99q67 66 99.5 145.5t32.5 170.5q0 94 -32.5 173.5t-99.5 145.5q-65 67 -144 99q-81 34 -173 34zM898 690 l-245 -383h245v383zM872 775h122v-468h102v-80h-102v-169h-96v169h-324v93zM858 926q104 0 196 -38q90 -37 164 -112q76 -76 112.5 -166t36.5 -196q0 -103 -36.5 -193t-112.5 -166q-74 -75 -164 -112q-92 -38 -196 -38t-196 38q-90 37 -164 112q-76 76 -112.5 166t-36.5 193 q0 106 36.5 196t112.5 166q74 75 164 112q92 38 196 38z" />
<glyph unicode="&#x2784;" horiz-adv-x="1372" d="M858 866q-92 0 -173 -34q-79 -32 -144 -99q-67 -66 -99.5 -145.5t-32.5 -173.5q0 -91 32.5 -170.5t99.5 -145.5q65 -67 144 -99q81 -34 173 -34t173 34q79 32 144 99q67 66 99.5 145.5t32.5 170.5q0 94 -32.5 173.5t-99.5 145.5q-65 67 -144 99q-81 34 -173 34zM668 773 h380v-82h-291v-176q21 8 42 11.5t42 3.5q120 0 190 -66t70 -178q0 -116 -72 -180t-203 -64q-45 0 -91.5 8t-96.5 23v97q45 -24 90 -35t96 -11q83 0 131.5 43.5t48.5 118.5t-48.5 118.5t-131.5 43.5q-39 0 -77.5 -8.5t-78.5 -26.5v360zM858 926q104 0 196 -38 q90 -37 164 -112q76 -76 112.5 -166t36.5 -196q0 -103 -36.5 -193t-112.5 -166q-74 -75 -164 -112q-92 -38 -196 -38t-196 38q-90 37 -164 112q-76 76 -112.5 166t-36.5 193q0 106 36.5 196t112.5 166q74 75 164 112q92 38 196 38z" />
<glyph unicode="&#x2785;" horiz-adv-x="1372" d="M858 866q-92 0 -173 -34q-79 -32 -144 -99q-67 -66 -99.5 -145.5t-32.5 -173.5q0 -91 32.5 -170.5t99.5 -145.5q65 -67 144 -99q81 -34 173 -34t173 34q79 32 144 99q67 66 99.5 145.5t32.5 170.5q0 94 -32.5 173.5t-99.5 145.5q-65 67 -144 99q-81 34 -173 34zM852 455 q-65 0 -103.5 -45t-38.5 -123q0 -76 38.5 -121t103.5 -45t103.5 45t38.5 121q0 78 -38.5 123t-103.5 45zM1045 758v-88q-37 18 -74 27t-73 9q-96 0 -147 -65t-58 -196q28 42 70.5 64.5t94.5 22.5q108 0 170.5 -66t62.5 -179q0 -110 -65 -176.5t-174 -66.5q-124 0 -190 95.5 t-66 275.5q0 171 81 271.5t216 100.5q37 0 74 -7t78 -22zM858 926q104 0 196 -38q90 -37 164 -112q76 -76 112.5 -166t36.5 -196q0 -103 -36.5 -193t-112.5 -166q-74 -75 -164 -112q-92 -38 -196 -38t-196 38q-90 37 -164 112q-76 76 -112.5 166t-36.5 193q0 106 36.5 196 t112.5 166q74 75 164 112q92 38 196 38z" />
<glyph unicode="&#x2786;" horiz-adv-x="1372" d="M858 866q-92 0 -173 -34q-79 -32 -144 -99q-67 -66 -99.5 -145.5t-32.5 -173.5q0 -91 32.5 -170.5t99.5 -145.5q65 -67 144 -99q81 -34 173 -34t173 34q79 32 144 99q67 66 99.5 145.5t32.5 170.5q0 94 -32.5 173.5t-99.5 145.5q-65 67 -144 99q-81 34 -173 34zM625 775 h461v-42l-260 -675h-101l245 635h-345v82zM858 926q104 0 196 -38q90 -37 164 -112q76 -76 112.5 -166t36.5 -196q0 -103 -36.5 -193t-112.5 -166q-74 -75 -164 -112q-92 -38 -196 -38t-196 38q-90 37 -164 112q-76 76 -112.5 166t-36.5 193q0 106 36.5 196t112.5 166 q74 75 164 112q92 38 196 38z" />
<glyph unicode="&#x2787;" horiz-adv-x="1372" d="M858 866q-92 0 -173 -34q-79 -32 -144 -99q-67 -66 -99.5 -145.5t-32.5 -173.5q0 -91 32.5 -170.5t99.5 -145.5q65 -67 144 -99q81 -34 173 -34t173 34q79 32 144 99q67 66 99.5 145.5t32.5 170.5q0 94 -32.5 173.5t-99.5 145.5q-65 67 -144 99q-81 34 -173 34zM857 398 q-69 0 -108.5 -37t-39.5 -102t39.5 -101.5t108.5 -36.5t109 37t40 101q0 65 -39.5 102t-109.5 37zM760 439q-62 16 -97 58.5t-35 104.5q0 86 61.5 135.5t168 49.5t168 -49.5t61.5 -135.5q0 -62 -35 -104.5t-97 -58.5q70 -16 109 -63.5t39 -116.5q0 -104 -63.5 -159.5 t-182 -55.5t-182.5 55.5t-64 159.5q0 69 40 116.5t109 63.5zM725 592q0 -55 34.5 -86t97.5 -31t98.5 31t35.5 86q0 56 -35.5 87t-98.5 31t-97.5 -31t-34.5 -87zM858 926q104 0 196 -38q90 -37 164 -112q76 -76 112.5 -166t36.5 -196q0 -103 -36.5 -193t-112.5 -166 q-74 -75 -164 -112q-92 -38 -196 -38t-196 38q-90 37 -164 112q-76 76 -112.5 166t-36.5 193q0 106 36.5 196t112.5 166q74 75 164 112q92 38 196 38z" />
<glyph unicode="&#x2788;" horiz-adv-x="1372" d="M858 866q-92 0 -173 -34q-79 -32 -144 -99q-67 -66 -99.5 -145.5t-32.5 -173.5q0 -91 32.5 -170.5t99.5 -145.5q65 -67 144 -99q81 -34 173 -34t173 34q79 32 144 99q67 66 99.5 145.5t32.5 170.5q0 94 -32.5 173.5t-99.5 145.5q-65 67 -144 99q-81 34 -173 34zM670 73 v88q37 -18 74 -27t73 -9q96 0 147 64.5t58 196.5q-28 -41 -71 -63t-94 -22q-109 0 -171 65t-62 178q0 110 65.5 176.5t173.5 66.5q125 0 190 -95t65 -277q0 -169 -80 -270t-216 -101q-37 0 -74.5 7t-77.5 22zM863 376q65 0 103 45t38 123q0 77 -38 121.5t-103 44.5 t-103.5 -44.5t-38.5 -121.5q0 -78 38.5 -123t103.5 -45zM858 926q104 0 196 -38q90 -37 164 -112q76 -76 112.5 -166t36.5 -196q0 -103 -36.5 -193t-112.5 -166q-74 -75 -164 -112q-92 -38 -196 -38t-196 38q-90 37 -164 112q-76 76 -112.5 166t-36.5 193q0 106 36.5 196 t112.5 166q74 75 164 112q92 38 196 38z" />
<glyph unicode="&#x2789;" horiz-adv-x="1372" d="M858 866q-92 0 -173 -34q-79 -32 -144 -99q-67 -66 -99 -145q-33 -80 -33 -174q0 -91 33 -171q32 -79 99 -145q65 -67 144 -99q81 -34 173 -34t173 34q79 32 144 99q67 66 99 145q33 80 33 171q0 94 -33 174q-32 79 -99 145q-65 67 -144 99q-81 34 -173 34zM1013 710 q-50 0 -76 -73q-26 -74 -26 -222q0 -147 25.5 -220.5t76.5 -73.5q52 0 78 73.5t26 220.5q0 146 -26 222q-26 73 -78 73zM1013.5 787q91.5 0 140.5 -95q48 -95 48 -277q0 -180 -48 -276q-49 -95 -140.5 -95t-139.5 95.5t-48 275.5t48 277q48 95 139.5 95zM597 139h85v547 l-90 -22v88l89 23h77v-636h79v-81h-240v81zM858 926q104 0 196 -38q90 -37 164 -112q76 -76 112 -165q37 -91 37 -197q0 -103 -37 -194q-36 -89 -112 -165q-74 -75 -164 -112q-92 -38 -196 -38t-196 38q-90 37 -164 112q-76 76 -112 165q-37 91 -37 194q0 106 37 197 q36 89 112 165q74 75 164 112q92 38 196 38z" />
<glyph unicode="&#x278a;" horiz-adv-x="1372" d="M669 139v-81h413v81h-159v636h-96l-172 -35v-88l172 34v-547h-158zM858 926q104 0 196 -38q90 -37 164 -112q76 -76 112.5 -166t36.5 -196q0 -103 -36.5 -193t-112.5 -166q-74 -75 -164 -112q-92 -38 -196 -38t-196 38q-90 37 -164 112q-76 76 -112.5 166t-36.5 193 q0 106 36.5 196t112.5 166q74 75 164 112q92 38 196 38z" />
<glyph unicode="&#x278b;" horiz-adv-x="1372" d="M748 141l182 186q64 67 76 80q44 54 60.5 94t16.5 83q0 93 -66.5 149t-177.5 56q-42 0 -93 -12t-109 -35v-98q57 32 108 47.5t96 15.5q64 0 104 -36t40 -93q0 -35 -18 -71t-65 -89q-25 -27 -120 -124l-150 -153v-82h455v82h-339zM858 926q104 0 196 -38q90 -37 164 -112 q76 -76 112.5 -166t36.5 -196q0 -103 -36.5 -193t-112.5 -166q-74 -75 -164 -112q-92 -38 -196 -38t-196 38q-90 37 -164 112q-76 76 -112.5 166t-36.5 193q0 106 36.5 196t112.5 166q74 75 164 112q92 38 196 38z" />
<glyph unicode="&#x278c;" horiz-adv-x="1372" d="M961 444q63 16 97.5 57t34.5 101q0 85 -64.5 135t-175.5 50q-42 0 -90.5 -7.5t-103.5 -22.5v-87q55 18 100.5 27t85.5 9q73 0 112 -29.5t39 -84.5q0 -54 -38 -82.5t-110 -28.5h-87v-80h84q79 0 123.5 -36t44.5 -99q0 -69 -48 -105t-139 -36q-52 0 -100 12t-89 36v-94 q51 -17 99 -26t93 -9q135 0 207.5 58t72.5 164q0 69 -39 116t-109 62zM858 926q104 0 196 -38q90 -37 164 -112q76 -76 112.5 -166t36.5 -196q0 -103 -36.5 -193t-112.5 -166q-74 -75 -164 -112q-92 -38 -196 -38t-196 38q-90 37 -164 112q-76 76 -112.5 166t-36.5 193 q0 106 36.5 196t112.5 166q74 75 164 112q92 38 196 38z" />
<glyph unicode="&#x278d;" horiz-adv-x="1372" d="M898 690v-383h-245zM872 775l-298 -455v-93h324v-169h96v169h102v80h-102v468h-122zM858 926q104 0 196 -38q90 -37 164 -112q76 -76 112.5 -166t36.5 -196q0 -103 -36.5 -193t-112.5 -166q-74 -75 -164 -112q-92 -38 -196 -38t-196 38q-90 37 -164 112 q-76 76 -112.5 166t-36.5 193q0 106 36.5 196t112.5 166q74 75 164 112q92 38 196 38z" />
<glyph unicode="&#x278e;" horiz-adv-x="1372" d="M668 773v-360q40 18 78.5 26.5t77.5 8.5q83 0 131.5 -43.5t48.5 -118.5t-48.5 -118.5t-131.5 -43.5q-51 0 -97 11.5t-89 34.5v-97q50 -15 96.5 -23t91.5 -8q131 0 203 64t72 180q0 112 -70 178t-190 66q-21 0 -42 -3.5t-42 -11.5v176h291v82h-380zM858 926q104 0 196 -38 q90 -37 164 -112q76 -76 112.5 -166t36.5 -196q0 -103 -36.5 -193t-112.5 -166q-74 -75 -164 -112q-92 -38 -196 -38t-196 38q-90 37 -164 112q-76 76 -112.5 166t-36.5 193q0 106 36.5 196t112.5 166q74 75 164 112q92 38 196 38z" />
<glyph unicode="&#x278f;" horiz-adv-x="1372" d="M852 455q65 0 103.5 -45t38.5 -123q0 -76 -38.5 -121t-103.5 -45t-103.5 45t-38.5 121q0 78 38.5 123t103.5 45zM1045 758q-41 15 -78 22t-74 7q-135 0 -216 -101t-81 -271q0 -180 66 -275.5t190 -95.5q109 0 174 66.5t65 176.5q0 113 -62.5 179t-170.5 66 q-52 0 -94.5 -22.5t-70.5 -64.5q7 131 58 196t147 65q36 0 73 -9t74 -27v88zM858 926q104 0 196 -38q90 -37 164 -112q76 -76 112.5 -166t36.5 -196q0 -103 -36.5 -193t-112.5 -166q-74 -75 -164 -112q-92 -38 -196 -38t-196 38q-90 37 -164 112q-76 76 -112.5 166 t-36.5 193q0 106 36.5 196t112.5 166q74 75 164 112q92 38 196 38z" />
<glyph unicode="&#x2790;" horiz-adv-x="1372" d="M625 775v-82h345l-245 -635h101l260 675v42h-461zM858 926q104 0 196 -38q90 -37 164 -112q76 -76 112.5 -166t36.5 -196q0 -103 -36.5 -193t-112.5 -166q-74 -75 -164 -112q-92 -38 -196 -38t-196 38q-90 37 -164 112q-76 76 -112.5 166t-36.5 193q0 106 36.5 196 t112.5 166q74 75 164 112q92 38 196 38z" />
<glyph unicode="&#x2791;" horiz-adv-x="1372" d="M857 398q70 0 109.5 -37t39.5 -102q0 -64 -40 -101t-109 -37t-108.5 36.5t-39.5 101.5t39.5 102t108.5 37zM760 439q-69 -16 -109 -63.5t-40 -116.5q0 -104 64 -159.5t182.5 -55.5t182 55.5t63.5 159.5q0 69 -39 116.5t-109 63.5q62 16 97 58.5t35 104.5 q0 86 -61.5 135.5t-168 49.5t-168 -49.5t-61.5 -135.5q0 -62 35 -104.5t97 -58.5zM725 592q0 56 34.5 87t97.5 31t98.5 -31t35.5 -87q0 -55 -35.5 -86t-98.5 -31t-97.5 31t-34.5 86zM858 926q104 0 196 -38q90 -37 164 -112q76 -76 112.5 -166t36.5 -196q0 -103 -36.5 -193 t-112.5 -166q-74 -75 -164 -112q-92 -38 -196 -38t-196 38q-90 37 -164 112q-76 76 -112.5 166t-36.5 193q0 106 36.5 196t112.5 166q74 75 164 112q92 38 196 38z" />
<glyph unicode="&#x2792;" horiz-adv-x="1372" d="M670 73q40 -15 77.5 -22t74.5 -7q136 0 216 101t80 270q0 182 -65 277t-190 95q-108 0 -173.5 -66.5t-65.5 -176.5q0 -113 62.5 -178t170.5 -65q51 0 94 22t71 63q-7 -132 -58 -196.5t-147 -64.5q-36 0 -73 9t-74 27v-88zM863 376q-65 0 -103.5 45t-38.5 123 q0 77 38.5 121.5t103.5 44.5t103 -44.5t38 -121.5q0 -78 -38 -123t-103 -45zM858 926q104 0 196 -38q90 -37 164 -112q76 -76 112.5 -166t36.5 -196q0 -103 -36.5 -193t-112.5 -166q-74 -75 -164 -112q-92 -38 -196 -38t-196 38q-90 37 -164 112q-76 76 -112.5 166 t-36.5 193q0 106 36.5 196t112.5 166q74 75 164 112q92 38 196 38z" />
<glyph unicode="&#x2793;" horiz-adv-x="1372" d="M1049 710q61 0 91 -73.5t30 -221.5q0 -147 -30 -220.5t-91 -73.5q-60 0 -90 73.5t-30 220.5q0 148 30 221.5t90 73.5zM1049.5 787q-96.5 0 -147.5 -95t-51 -277q0 -180 51 -275.5t147.5 -95.5t147.5 95.5t51 275.5q0 182 -51 277t-147.5 95zM567 139v-81h270v81h-97v636 h-77l-107 -23v-88l108 22v-547h-97zM858 926q104 0 196 -38q90 -37 164 -112q76 -76 112.5 -166t36.5 -196q0 -103 -36.5 -193t-112.5 -166q-74 -75 -164 -112q-92 -38 -196 -38t-196 38q-90 37 -164 112q-76 76 -112.5 166t-36.5 193q0 106 36.5 196t112.5 166 q74 75 164 112q92 38 196 38z" />
<glyph unicode="&#xe000;" horiz-adv-x="630" d="M0 630h630v-630h-630v630z" />
<glyph horiz-adv-x="551" />
<glyph horiz-adv-x="0" d="M29 662v65h87v-65h-87z" />
<glyph horiz-adv-x="0" d="M-491 749h35v-51l23 15v-12l-23 -15v-56h68q0 -11 -7.5 -17.5t-14.5 -6.5l-8 -1h-73v53l-20 -15v12l20 16v78z" />
<glyph horiz-adv-x="0" d="M218 601h59v-52h-59v52z" />
<glyph horiz-adv-x="0" d="M231 549q20 -6 65.5 -26.5t116 -60.5t131.5 -85.5t105.5 -106.5t44.5 -118q0 -6 -1 -16.5t-10.5 -36.5t-25.5 -45.5t-52 -36t-84 -16.5h-521v182h171v-33q72 -31 173 -31q32 0 73 5t81.5 21t40.5 40q0 32 -55.5 82.5t-134.5 100t-158.5 94t-134.5 72.5l-56 28q0 6 1 15 t10 32.5t24.5 41.5t50 33t80.5 15h528v-183h-173v33q-50 30 -136 30q-74 0 -154 -30z" />
<glyph horiz-adv-x="0" d="M701 527v-356q0 -48 -17.5 -83t-42.5 -51t-49.5 -25t-41.5 -10l-18 -1h-532v701h532q47 0 82 -18t51 -44t25 -51.5t10 -43.5zM551 234v235q0 4 -0.5 11t-6 24t-14.5 30t-29 24t-47 11h-304v-432h304q4 0 10.5 0.5t23 6t29.5 14.5t23.5 29t10.5 47z" />
</font>
</defs>
</svg>
